<?xml version="1.0" encoding="utf-8"?>
<!-- Generator: Adobe Illustrator 25.0.1, SVG Export Plug-In . SVG Version: 6.00 Build 0)  -->
<svg version="1.1" id="Layer_1" xmlns="http://www.w3.org/2000/svg" xmlns:xlink="http://www.w3.org/1999/xlink" x="0px" y="0px"
	 viewBox="0 0 512 512" style="enable-background:new 0 0 512 512;" xml:space="preserve">
<style type="text/css">
	.st0{fill:#00B5E5;}
	.st1{fill:#EEE8A9;}
	.st2{fill:#F5E0CD;}
	.st3{fill:#FFFFFF;}
	.st4{fill:#FFFFFF;stroke:#000000;stroke-width:0.702;stroke-miterlimit:10;}
	.st5{stroke:#000000;stroke-width:0.492;stroke-miterlimit:10;}
</style>
<g>
	<path d="M63.3,106.9c-12.5-3.5-23.6-9.2-34.1-16.7c0,11.3,0,22.7,0,34c0,11.4,0,22.7,0,34.1c10.5,7.6,21.6,13.2,34.1,16.7
		c0.5,0.1,0.8,0.2,1.3,0.3c10.9,2.4,21.6,3,32.8,2.2c0-10.9,0-21.8,0-32.7c0-0.6,0-0.8,0-1.4c0-11.3,0-22.7,0-34
		C85.8,110.3,74.7,109.6,63.3,106.9z"/>
	<g>
		<g>
		</g>
		<g>
			<path d="M308.8,123.4c-2.8-1.9-5-1.3-5,1.3c0,1.4,0.6,2.7,1,3.7c0.4,1,0.8,1.8,0.8,2.9c0,0.2,0,0.4-0.1,0.7
				c-0.3-1.1-0.7-2.4-0.9-3.3c-0.5-1.7-0.9-3.4-1.3-4.5c0-0.1,0-0.1-0.1-0.2c-0.9-2.9-2.4-5.9-5.1-7.4c-1.7-0.9-4.4-0.8-6.3-0.3
				c-0.8,0.2-1.6,0.5-2.4,1c-0.6-3.2-2.7-6.2-5.8-7.3c-2.2-0.8-3.5-0.1-4.3,0.7c-0.4-1.1-1.3-2.4-3-2.8c-1.7-0.4-3.3-0.1-4.3,0.2
				c-0.3,0.1-0.6,0.1-1,0.2c-1.4,0.3-3.5,0.8-4.2,2.4c-1.9-3.4-5.5-5.4-9.4-5.6c-3.9-0.1-7.8,1.4-10.6,4.3
				c-2.8,2.9-4.4,6.8-4.4,10.8c0,0.2,0,0.4,0,0.6c-0.3-0.1-0.6-0.2-1-0.3c0.1-0.8,0.3-2.3,0.5-3.6c0.4-2.1,0.7-4.3,0.7-5.6
				c0-3.1-2.5-5.4-5.5-4.9c-3.1,0.5-5.5,2.4-7,3.8c-1-1.5-2.9-2.2-5.1-1.7c-2.5,0.6-5.1,2.6-6.9,4.4c-0.5-1.6-1.8-2.3-3.6-1.8
				c-2.5,0.7-4.8,2.4-6.8,4c-0.1,0.1-0.1,0.1-0.2,0.2c-0.6,0.5-1.5,1.2-2.2,2c-1-2-3.4-2.6-6.8-1.3c-8.3,2.9-16.4,12-16.7,21.1
				c-0.1,2.5,0.7,4.3,2.1,5.3c2.5,1.6,5.8,0.6,8.2-0.2c2.6-0.8,5.4-2.6,7.5-4.4c2.3-1.9,5-4.3,5.2-7.3c0.1-1.5-1.2-2.6-2.7-2.3
				c1.5-1.7,2.6-3.6,3.3-5.5c0.3,0,0.8,0,1.3-0.1c-0.1,1.9-0.6,4.8-1,7.2c-0.4,2.1-0.6,3.3-0.6,4c0,1.5,0.6,2.2,1.2,2.5
				c0.7,0.4,1.6,0.4,2.7,0.1c0.2-0.1,0.3-0.1,0.5-0.2c3-1.1,6.8-2.5,7.7-6c0.1,2.5,1.4,3.3,4,2.7c1.2-0.3,5.2-1.4,7.1-3.8
				c0.7-0.9,1-2.2,1.3-4.2c-0.1,0.6-0.1,1.2-0.1,1.8c0,0,0,0.1,0,0.1c0,0,0,0.1,0,0.1c0.3,2.5,2,3.8,4.3,3.5c0.1,0,0.2,0,0.3,0
				c3.3-0.8,7.8-2.8,9.3-6.2c1.8,3.4,6,5,9.7,4.9c3.7-0.1,7.7-1.1,10.6-3.6c2.9-2.5,4.4-6.2,4.4-9.9c0-0.1,0-0.2,0-0.3
				c0.4,0.3,0.9,0.5,1.5,0.7c-0.1,1.8-0.5,3.8-0.9,5.7c-0.4,1.8-0.7,3.4-0.7,4.7c0,1.8,1.1,3.8,4.3,4.5c0.1,0,0.3,0.1,0.4,0.1
				c3.5,0.5,5.7,0.5,7-0.6c1.3-1.1,1.4-3,1.4-4.4c0.2-1.9,0.3-2.9,0.5-4.8c0.6,0.7,1.5,1.3,2.7,1.8c1.6,0.6,2.9,0.4,3.9-0.3
				c0.1,0.3,0.3,0.5,0.5,0.8c0.7,1,1.5,1.7,2.4,2.1c0.9,0.4,1.6,0.2,2.1,0.1c1.3,2.9,2.2,5.9,3,8.9c-0.8-1.1-1.9-2-3.2-2.6
				c-3.3-1.5-5.6,0-5.6,3.2c-0.1,4.9,4.6,9.2,8.6,11.2c3.2,1.6,7,2.4,10.4,1.3c5.3-1.8,7.8-8.3,7.7-13.4
				C313.9,130.1,312.2,125.7,308.8,123.4z M218,124.8c-0.1,0.3-0.1,0.6-0.2,0.9c0.2-2.5,0.5-4,0.8-4.8
				C218.5,122.2,218.2,123.5,218,124.8z M230.2,121.3c-0.2,0.8-0.3,1.6-0.4,2.5c0-0.2,0-0.3,0.1-0.5c0-0.2,0-0.5,0.1-0.8
				c0.2-2.5,0.5-3.9,0.9-4.7C230.6,118.9,230.4,120.1,230.2,121.3z M255.8,113.5c-0.1,2.1-0.7,5-0.9,6c0,0.1,0,0.2-0.1,0.3
				c0,0.1-0.1,0.4-0.1,0.6c0.1-1.6,0.3-3.6,0.7-5.4c0-0.1,0-0.2,0.1-0.3C255.6,114.4,255.7,114,255.8,113.5z"/>
			<path d="M182.8,118.6c1.2,0.8,2.7,0.8,4.6,0.1c2.9-1.1,4.9-3.3,6.2-4.9c0.4,1,1.4,2,3.8,1.1c3.6-1.4,9.3-5.5,9.5-9.6
				c0-1.2-0.8-2-2-1.9c0-0.3,0-0.8,0.1-1c0-0.1,0-0.3,0-0.4c0.2-2.4,0.5-4.5,0.7-6.5c0.3,1,1,1.7,2.8,1.3c-0.1,1.8-0.5,4.1-0.9,6.1
				c-0.4,2-0.7,3.8-0.7,5c0,1.8,1.1,3.3,4.3,2.4c0.1,0,0.3-0.1,0.4-0.1c2.5-0.8,5.3-2,7-4.2c1.4-1.8,1.4-3.8,1.4-5.2
				c0.2-2,0.3-3,0.5-5.1c0.6,0.3,1.5,0.5,2.7,0.2c2.9-0.7,4.9-3.2,5.4-6.1c0.3,0,0.6,0,1,0c-0.5,2.8-0.7,4.2-1.1,7
				c-0.2,1.2-0.4,2.7-0.4,4.1c-0.1,3.1,2.7,4.9,5.5,4.3c3.9-0.9,11.2-3.9,11.3-8.6c0.1-1.7-1.1-3-2.7-2.8c-0.7,0.1-1.2,0.4-1.6,0.7
				c-0.1,0-0.1,0.1-0.2,0.1c0-0.2,0-0.4,0.1-0.7c0,0,0,0,0-0.1c0.2-1.6,0.3-2.4,0.5-4c0.1-0.7,0.3-1.5,0.4-1.9
				c0.2,0,0.6-0.1,0.8-0.1c0.2,0,0.3,0,0.5,0c0.5-0.1,1-0.2,1.3-0.4c0.2,0.9,0.7,1.3,1.2,1.6c0.3,0.2,0.7,0.3,1,0.3
				c0,0.1,0,0.2,0,0.2c-0.1,0.3-0.1,0.6-0.2,0.9c-0.4,2.7-0.6,4.1-1,6.9c-0.1,0.7-0.2,1.5-0.2,2.4c0,2.6,2.5,4.1,4.8,3.9
				c3.1-0.2,7.8-1.5,9.6-4.5c0,0.3-0.1,0.7-0.1,0.9c0,1.3,0.5,2.4,1.5,3.1c0.7,0.5,1.6,0.8,2.7,0.9c0.1,0,0.3,0,0.4,0
				c4.4,0.4,7.6-1,7.8-5.9c0-0.1,0-0.1,0-0.2c0.3-3.5,0.9-5.1,1.3-5.8c-0.1,0.9-0.2,1.3-0.3,2.1c-0.1,0.6-0.2,1.3-0.4,2
				c-0.3,1.5-0.7,3.1-0.7,4.6c0,2.6,1.8,4.6,4.4,5.2c2.7,0.6,9.7,1,9.8-3.2c0-1.2-0.6-2.3-1.9-3.2c0.1-1,0.3-2.3,0.6-3.7
				c0.4-1.8,0.8-3.8,0.8-5.3c-0.1-3.4-2.8-6.4-6.1-7.4c-2.7-0.8-5.2,0.4-6.8,1.2c0,0-0.1,0-0.1,0.1c-0.3-1.2-1-3.1-3.3-3.4
				c-2.2-0.4-6.1,0.5-7.9,1.4c-0.9,0.5-1.7,1-2.1,1.6c0-0.3,0-0.5,0-0.7c0-1.7-0.8-2.9-2.2-3.4c2-1,3.7-2.5,3.7-4.6
				c0-1-0.3-1.8-1-2.6c-1.2-1.3-3.2-1.6-3.9-1.6c-3.7,0-9.7,2.2-9.7,6.6c0,0.9,0.4,2.7,3.2,3.3c-0.3,0.1-0.7,0.3-0.9,0.4
				c0,0,0,0,0,0c-0.6,0.3-1.5,0.7-2.3,1.4c0-0.2,0-0.4,0-0.6c0-1.2-0.8-2.3-2.6-2.1c-0.3,0-0.5,0.1-0.8,0.1c0.1-0.6,0.1-1.3,0.2-1.8
				c0-0.4,0.1-0.7,0.1-0.9c0,0,0,0,0-0.1c0,0,0,0,0-0.1c0-1.9-1.2-3-3.1-2.7c-1.3,0.2-3.8,0.6-5.6,1.8c-1.8,1.2-2.4,3.2-2.7,4.3
				c-0.1,0.5-0.3,1-0.4,1.2c0,0-0.1,0-0.2,0.1c-1.5,0.4-2.6,1.3-3.2,2.5c-1.1-1.2-2.7-1.8-4.6-1.3c-2.2,0.5-3.5,1.9-4.3,3.1
				c-0.4-0.9-1.3-1.7-3-1.3c-1.7,0.5-3.3,1.6-4.3,2.4c-0.3,0.2-0.6,0.5-1,0.7c-1.2,0.9-3.1,2.2-4,3.9c0-0.3,0.1-0.6,0.1-0.9
				c0.1-1-0.2-1.7-0.7-2.1c-0.6-0.4-1.4-0.5-2.5-0.1c-1.5,0.5-2.8,1.5-4.1,2.6c0,0,0,0,0,0c-0.1,0.1-0.1,0.1-0.2,0.2
				c-0.1,0.1-0.4,0.3-0.6,0.5c-0.1,0-0.3-0.1-0.5-0.1c-0.8-0.2-2.1-0.6-4,0.1c-0.2,0.1-0.5,0.2-0.7,0.3
				c-7.4,3.3-11.8,12.6-12.2,20.3C180.6,115.7,181.4,117.7,182.8,118.6z M258,89.2C258.1,89.2,258.1,89.2,258,89.2
				c0-0.1,0-0.3,0.1-0.5c0.1-0.4,0.1-0.8,0.2-1.2c0.4,0.9,1.2,1.5,2.3,1.6c0,1.8-0.6,4.4-1,6.5c-0.1,0.4-0.1,0.7-0.2,1
				c-0.2-1.4-1.3-2-2.2-2.1C257.5,92.6,258,89.6,258,89.2z M193,105.6c0.3-1.2,0.9-2.6,1.4-3.8c-0.2,0.6-0.4,1.3-0.7,2
				C193.5,104.5,193.3,105.1,193,105.6z"/>
			<path d="M182.4,143.5c-2.1-0.6-2.5-0.9-2.6-1c0,0-0.3-0.4-0.6-2c-0.9-6.7-1.1-13.6-1.1-20.4c0-5.3,0.2-10.7,1.1-15.9
				c0.3-1.8,1-3.3,2.1-4.5c1.2-1.4,2.1-2.5,2.5-3.4c0.5-1,0.7-2.2,0.8-3.3c0.2-7.6-11.7-3.1-14.9-1.9c-4,1.6-8.3,3.5-11.4,6.7
				c-2.3,2.4-3.8,5.7-5.1,8.8c-0.2,0.6-0.8,1.9-1.6,3.8c-2.2,5.1-4.4,10.2-6.6,15.3c-0.8,1.7-1.2,2.4-1.4,2.7
				c-0.2,0.3-0.4,0.4-0.5,0.4c-0.4,0.1-0.5,0.1-0.5,0c-0.1-0.1-0.6-0.5-2-2.6c-3.3-4.9-6.5-9.9-9.8-14.8c-1-1.5-1.7-2.5-2.2-2.9
				c-0.6-0.5-1.5-0.9-2.5-1c-3-0.3-6.2,0.5-9.1,1.2c-1.6,0.4-3.7,1-6.1,1.7c-2.4,0.8-4.3,1.5-5.8,2.1c-1.6,0.7-3,1.7-4.1,2.9
				c-1.1,1.3-1.7,2.8-1.7,4.3c0,1.6,0.8,3.9,4.2,5.1c1.2,0.4,1.6,0.7,1.7,0.7c0.1,0.1,0.3,0.3,0.5,0.7c1.2,2.7,1.1,6.5,1,9.6
				c0,4.9-0.2,9.8-0.4,14.7c-0.2,4.1-0.4,8.3-0.8,12.4c-0.3,2.9-0.6,4-0.8,4.4c-0.2,0.5-0.6,0.9-1.3,1.3c0,0,0,0,0,0
				c-2.4,1.5-3.1,2.1-3.5,2.5c-0.7,0.8-1,1.9-1.1,3.2c-0.1,6.6,9.2,5.4,13,4.8c5.3-0.9,15.1-3.7,15.1-10.6c0-1.9-0.9-3.2-2.4-3.5
				c-2.1-0.5-2.5-0.7-2.6-0.8c0,0-0.2-0.1-0.4-0.6c-0.2-0.7-0.4-2.3-0.4-6.1c0-3.4,0.1-6.8,0.3-10.2c0-0.4,0.1-0.7,0.1-0.9
				c0.2,0.2,0.6,0.5,1.1,1.5c2.1,4.1,4.1,8.2,6.2,12.2c0.8,1.6,1.9,3.5,3.1,5.5c1.7,2.8,2.3,3.4,2.6,3.7c0.8,0.7,1.9,0.8,3,0.4
				c0.8-0.3,2.1-1,3.2-2.8c0.7-1.1,1.5-2.9,2.6-5.6c1.9-4.9,3.8-9.8,5.6-14.7c1.1-2.8,2.1-5.7,3.5-8.3c0.5-0.9,0.9-1.3,1.1-1.5l0,0
				c0.1,0.3,0.3,1.2,0.3,4.4c0,3.2,0,6.4-0.4,9.5c-0.3,2.1-0.9,2.9-1.1,3.2c-2.2,2.7-2.9,3.6-3.2,4.1c-0.6,1-0.9,2.1-0.9,3.2
				c0,2,1,4.3,5.5,3.8c4.2-0.4,8.4-2,12.3-3.6c2.6-1,5.3-2.1,7.8-3.3c1.8-0.9,3.5-1.9,5.1-3c2.7-2,5.5-4.8,5.5-8.3
				C184.9,145.1,184,143.9,182.4,143.5z"/>
		</g>
	</g>
	<path id="XMLID_20_" class="st0" d="M26.7,85.7C47,101,69.4,108.4,94.9,107.1c0,22.7,0,45.4,0,68.1c-25.5,1.3-47.9-6.1-68.2-21.4
		C26.7,131.1,26.7,108.4,26.7,85.7z"/>
	<path id="XMLID_19_" class="st1" d="M62.1,172.1C49,168.2,37.6,162,26.7,153.8c0-11.4,0-22.7,0-34.1c10.5,7.9,21.5,14,34.1,18
		C61.2,149.2,61.7,160.6,62.1,172.1z"/>
	<path id="XMLID_18_" class="st1" d="M94.9,142.5c-11.7,0.2-22.9-1.3-34.1-4.8c0-11.4,0-22.7,0-34.1c11.3,3.1,22.4,4.1,34.1,3.5
		C94.9,118.9,94.9,130.7,94.9,142.5z"/>
	<path id="XMLID_17_" class="st0" d="M60.8,137.7c11.3,3.1,22.4,4.1,34.1,3.5c0,11.4,0,22.7,0,34.1c-11.7,0.6-22.8-0.4-34.1-3.5
		C60.8,160.4,60.8,149,60.8,137.7z"/>
	<path id="XMLID_16_" class="st1" d="M44.3,116.9c-1.6-0.8-2.4-1.3-4-2.2c0-2.6,0-3.9,0-6.4c1.6,0.9,2.4,1.3,3.9,2.1
		c0.8,0.4,1.5,0.1,1.5-0.7s-0.7-1.8-1.5-2.2c-1.6-0.8-2.4-1.2-3.9-2.1c0-1.6,0-2.4,0-4c1.6,0.9,2.4,1.3,3.9,2.1
		c3,1.6,5.4,4.7,5.5,8.1c0.1,2.9-2.4,4.4-5.4,2.9C44.3,115.4,44.3,115.9,44.3,116.9z"/>
	<path id="XMLID_15_" class="st1" d="M40.3,118.7c1.6,0.9,2.4,1.3,4,2.2c0,1.5,0,2.3,0,3.8c-1.6-0.8-2.4-1.3-4-2.2
		C40.3,121,40.3,120.2,40.3,118.7z"/>
	<path id="XMLID_14_" class="st1" d="M78.1,161.1c-1.6-0.1-2.4-0.2-4-0.5c0-2.6,0-3.9,0-6.4c1.6,0.2,2.4,0.3,3.9,0.4
		c0.8,0.1,1.5-0.5,1.5-1.4c0-0.8-0.7-1.5-1.5-1.6c-1.6-0.1-2.4-0.2-3.9-0.4c0-1.6,0-2.4,0-4c1.6,0.2,2.4,0.3,3.9,0.4
		c3,0.3,5.5,2.8,5.5,5.8c0,2.9-2.4,5.3-5.4,5.1C78.1,159.6,78.1,160.1,78.1,161.1z"/>
	<path id="XMLID_13_" class="st1" d="M74.1,164.6c1.6,0.2,2.4,0.3,4,0.5c0,1.5,0,2.3,0,3.8c-1.6-0.1-2.4-0.2-4-0.5
		C74.1,166.9,74.1,166.1,74.1,164.6z"/>
	<path id="XMLID_12_" class="st0" d="M43.7,139.8c1.3,2.6,2,3.9,3.3,6.4c2,1.5,3,2.2,5.1,3.6c-1.5,0.9-2.3,1.3-3.8,2.1
		c0.3,2.6,0.4,3.8,0.6,6.4c-2.1-1.9-3.1-2.9-5.2-4.9c-2.1-0.1-3.1-0.2-5.2-0.5c0.3-2.3,0.4-3.4,0.6-5.7c-1.5-2.4-2.3-3.6-3.8-6.1
		c2,0.8,3,1.1,5.1,1.7C41.8,141.6,42.4,141,43.7,139.8z"/>
	<path id="XMLID_11_" class="st0" d="M77.8,115.9c1.3,2,2,3,3.3,5c2,0.7,3,1,5.1,1.5c-1.5,1.5-2.3,2.2-3.8,3.6
		c0.3,2.4,0.4,3.7,0.6,6.1c-2.1-1.1-3.1-1.6-5.2-2.8c-2.1,0.8-3.1,1.1-5.2,1.8c0.3-2.4,0.4-3.6,0.6-6c-1.5-1.7-2.3-2.6-3.8-4.4
		c2-0.2,3-0.3,5.1-0.5C75.8,118.5,76.5,117.7,77.8,115.9z"/>
	<g>
	</g>
	<g>
		<path class="st0" d="M189.1,137.8c-2.6,0.7-5.7,1.8-8.2,0.2c-1.5-0.9-2.2-2.8-2.1-5.3c0.3-9.1,8.4-18.2,16.7-21.3
			c3.4-1.2,7.4-0.6,7.3,3.8c0,3.3-1.9,5.9-3.7,8.5c1.5-0.2,2.8,0.8,2.7,2.3c-0.1,3-2.9,5.5-5.2,7.4
			C194.5,135.1,191.8,136.9,189.1,137.8z"/>
		<path class="st1" d="M201.2,115.8c-0.1,5-5.1,10.1-9.7,11.8c-0.5,0.2-1.5,0.6-1.5,1.4c0,1.1,1.4,1.2,2.4,0.9c2.8-1,5-4,6.2-4.4
			c0.8-0.3,1.6,0.3,1.6,1.1c0,2.1-2.6,4.3-4.2,5.6c-2.2,1.8-4.4,3.1-6.8,4c-3.7,1.5-9,1.1-8.7-4c0.5-8.1,7.4-16.4,15.1-19.1
			C198.5,112,201.3,112.4,201.2,115.8z M189.9,123.9c0,0.5,0.2,1,0.7,0.8c1.1-0.4,3-4,2.9-5.8c0-0.5-0.3-1.1-0.9-0.9
			C191,118.6,189.9,122.7,189.9,123.9z"/>
		<path class="st0" d="M205.8,131.8c-1.1,0.4-2,0.3-2.7,0c-0.5-0.3-1.2-1-1.2-2.5c0-0.7,0.2-1.9,0.6-4c0.4-2.4,0.9-5.4,1-7.2
			c-2.3,0.5-2.8-0.7-2.8-1.9c0-2.4,2.4-4.4,3.7-5.4c0.1-0.1,0.1-0.1,0.2-0.2c2-1.6,4.3-3.4,6.8-4.1c1.8-0.5,3.1,0.1,3.6,1.7
			c1.8-1.9,4.4-3.9,6.9-4.6c2.2-0.5,4.1,0.1,5.1,1.6c1.5-1.5,3.9-3.5,7-4c3-0.5,5.6,1.7,5.5,4.8c0,1.3-0.4,3.5-0.7,5.6
			c-0.2,1.3-0.5,2.8-0.5,3.6c1.8,0.1,2.1,1.5,2.1,2.2c-0.1,4.2-6.1,6.9-9.5,7.8c-0.1,0-0.2,0-0.3,0.1c-2.4,0.4-4-0.8-4.3-3.4
			c0,0,0-0.1,0-0.1c0,0,0-0.1,0-0.1c0-0.6,0-1.2,0.1-1.8c-0.3,2-0.6,3.3-1.3,4.2c-1.7,2.1-4.4,3.3-7.1,4c-2.6,0.7-3.9-0.2-4-2.6
			c-0.9,3.4-4.7,4.9-7.7,6.1C206.2,131.7,206,131.8,205.8,131.8z M227.5,112.7c-0.3,0.7-0.7,2.1-0.9,4.7c0,0.3,0,0.6-0.1,0.8
			c0,0.2,0,0.3-0.1,0.5c0.1-0.8,0.3-1.7,0.4-2.5C227.2,115,227.4,113.8,227.5,112.7z M215.5,116c-0.3,0.9-0.6,2.4-0.8,4.8
			c0.1-0.3,0.1-0.6,0.2-0.9C215.1,118.6,215.3,117.3,215.5,116z"/>
		<path class="st1" d="M226.1,107.1c0.1,0.3,0.2,0.8,0.4,0.7c2-1,4.4-4.4,7.6-4.9c2.4-0.4,4,1.1,3.9,3.3c-0.1,3.2-1.2,6.6-1.3,9.7
			c-0.1,1.9,2.2,0.2,2.1,1.8c-0.3,3.1-5.1,5.3-8,6c-1.7,0.5-2.9-0.7-2.9-2.2c0-3,1.1-6.9,1.3-10.1c0-0.7-0.3-1.3-1-1.1
			c-2.8,0.8-3,5.4-3.2,8.1c-0.2,2.1-0.5,4.2-1.1,5c-1.2,1.6-4.1,2.7-5.8,3.2c-1.6,0.4-2.4,0.1-2.3-1.6c0.1-3.5,1.4-7.1,1.5-10.6
			c0-0.8-0.2-1.5-1.1-1.2c-2.8,1.1-3.1,6.4-3.2,9.3c-0.1,4.4-2.6,6-6.7,7.5c-1.5,0.6-2.7,0.4-2.6-1.3c0.2-3.7,1.5-7.7,1.6-11.5
			c0-0.7-0.1-1.3-0.9-1c-0.9,0.3-1.9,0.6-1.9-0.6c0-1.4,2-3,3.1-3.9c1.8-1.5,4-3.1,6.1-3.7c1.4-0.4,2,0.4,2.1,1.6
			c0,0.4,0.2,1.3,0.6,1.1c2.3-1.2,4.6-4.8,7.8-5.6C223.8,104.8,225.6,105.4,226.1,107.1z"/>
		<path class="st0" d="M249.9,123.4c-5.3,0.2-10.6-2.7-10.6-8.6c0-4,1.6-8,4.4-10.9c2.7-2.9,6.6-4.6,10.6-4.6
			c5.7,0,10.5,4.2,10.6,10c0,3.8-1.5,7.5-4.4,10.1C257.6,122,253.7,123.3,249.9,123.4z M252.3,109.2c-0.4,1.9-0.6,3.8-0.7,5.5
			c0.1-0.3,0.1-0.5,0.1-0.6c0-0.1,0-0.2,0.1-0.3c0.2-1,0.8-4,0.9-6c-0.1,0.4-0.2,0.9-0.3,1.2C252.3,109,252.3,109.1,252.3,109.2z"/>
		<path class="st1" d="M241,114.7c0.2-7,6-13.6,13.3-13.7c4.6-0.1,8.9,3.5,8.9,8.2c0,7.3-6.3,12.3-13.3,12.6
			C245.7,122,240.8,119.5,241,114.7z M250.7,108.9c-0.4,2.1-0.8,4.8-0.8,6.9c0,0.9,0.2,1.8,1.3,1.8c1.6,0,2-2.4,2.2-3.5
			c0.4-2,0.9-5,0.9-7c0-0.9-0.2-1.9-1.3-1.9C251.3,105.2,250.9,107.7,250.7,108.9z"/>
		<path class="st0" d="M269,124.4c-3.2-0.5-4.3-2.5-4.3-4.3c0-1.2,0.3-2.9,0.7-4.7c0.4-1.9,0.8-4,0.9-5.7c-2.4-0.5-3-2.2-3-3.7
			c0-2.8,2.8-3.5,4.5-3.9c0.4-0.1,0.8-0.2,1-0.3c1-0.4,2.6-0.7,4.3-0.4c1.7,0.4,2.5,1.6,3,2.7c0.8-0.8,2.1-1.6,4.3-0.9
			c3.4,1.1,5.7,4.7,5.9,8.3c0.1,3.1-2.4,5.5-5.5,4.5c-1.2-0.4-2.1-1-2.7-1.6c-0.2,1.9-0.3,2.9-0.5,4.8c0.1,1.4,0,3.3-1.4,4.5
			c-1.3,1.1-3.5,1.3-7,0.8C269.3,124.5,269.1,124.5,269,124.4z"/>
		<path class="st1" d="M276.1,118.7c0.6,4.4-3.5,4.6-6.8,4.1c-1.4-0.2-3.1-0.8-3-2.5c0.1-3.5,1.5-7.1,1.6-10.6c0-1-0.1-1.4-1.1-1.5
			c-1.2-0.2-1.8-0.6-1.8-2c0-2.1,3.2-2.3,4.7-2.8c1.1-0.4,2.3-0.6,3.6-0.3c2.4,0.5,1.3,4,2.6,4.3c1.1,0.3,1-3.6,4.7-2.5
			c2.5,0.8,4.3,3.6,4.3,6.1c0,2.4-1.2,4.2-3.8,3.4c-1.4-0.4-2-1.1-2.6-2.4c-0.1-0.3-0.5-1.1-0.8-1.1c-0.5-0.1-0.8,1.4-0.8,1.8
			C276.5,115,276.3,116.3,276.1,118.7z"/>
		<path class="st0" d="M292.5,138.9c-4-1.9-8.7-6-8.6-10.9c0-3.2,2.4-4.8,5.6-3.4c1.3,0.5,2.4,1.4,3.2,2.4c-0.9-3-1.7-6-3-8.8
			c-0.5,0.2-1.2,0.4-2.1,0c-0.9-0.3-1.7-1-2.4-2c-0.7-1.1-1.2-2.3-1.1-3.3c0.2-2,2.5-3.3,4.4-3.9c1.9-0.6,4.6-0.9,6.3,0
			c2.8,1.4,4.2,4.3,5.1,7.2c0,0.1,0,0.1,0.1,0.2c0.4,1.1,0.8,2.7,1.3,4.4c0.3,0.9,0.6,2.1,0.9,3.2c0-0.3,0.1-0.5,0.1-0.7
			c0-1-0.3-1.8-0.8-2.8c-0.5-1-1-2.3-1-3.7c0-2.6,2.2-3.3,5-1.5c3.4,2.2,5.1,6.5,5.2,10.4c0,5.2-2.5,11.8-7.7,13.8
			C299.6,141,295.8,140.5,292.5,138.9z"/>
		<path class="st1" d="M292.5,137.3c-3.3-1.6-6.9-4.8-7-8.6c-0.1-2.3,1.7-3.3,4-2.3c1.9,0.8,3.3,2.5,3.3,4.5c0,0.7-0.2,1.3-0.2,1.9
			c0,0.4,0.2,0.9,0.6,1.1c1.3,0.6,1.9-1,1.8-2c-0.3-4.6-2.1-13.3-5.2-15.5c-0.4-0.3-1.4,0.7-2.3,0.4c-1-0.4-2-2.2-1.8-2.9
			c0.7-2.6,6.3-4.2,9.1-3c2.1,0.9,3,3.4,3.7,5.5c1.3,3.8,1.7,9.3,3.9,11.9c0.7,0.9,1.5-2.9,1.5-3.6c0-2.7-1.8-4.6-1.8-6.5
			c0-1.8,1.6-2,3.4-0.9c2.6,1.7,3.5,4.7,3.5,7.6C309.1,133.3,301.5,141.5,292.5,137.3z"/>
	</g>
	<g>
		<path class="st0" d="M184.1,114.2c-1.8,0.7-3.4,0.7-4.6-0.1c-1.4-0.9-2.1-2.9-2-5.4c0.4-7.7,4.8-17,12.2-20.4
			c0.2-0.1,0.5-0.2,0.7-0.3c1.9-0.7,3.1-0.4,4-0.1c0.1,0,0.3,0.1,0.5,0.1c0.2-0.1,0.4-0.4,0.6-0.5c0.1-0.1,0.1-0.1,0.2-0.2
			c0,0,0,0,0,0c1.3-1.1,2.5-2.1,4.1-2.6c1.1-0.4,1.9-0.4,2.5,0.1c0.5,0.4,0.8,1.1,0.7,2.1c-0.1,1.1-0.3,2.5-0.5,4
			c-0.3,1.9-0.6,4.1-0.7,6.5c0,0.1,0,0.2,0,0.4c0,0.2,0,0.6-0.1,1c1.2-0.1,2,0.7,2,1.9c-0.2,4.2-5.9,8.3-9.5,9.7
			c-2.4,0.9-3.4-0.1-3.8-1C189.1,110.9,187.1,113.1,184.1,114.2z M191.3,97.2c-0.6,1.2-1.1,2.6-1.4,3.8c0.2-0.5,0.5-1.1,0.7-1.8
			C190.9,98.5,191.1,97.8,191.3,97.2z"/>
		<path class="st1" d="M201.3,87.3c-0.3,3.5-0.9,7-1.2,10.5c0,0.6-0.2,2,0,2.5c0.2,0.4,0.4,0.3,0.9,0.2c0.6-0.1,1,0.1,1,0.6
			c-0.3,3.1-5,6.4-7.9,7.6c-3.3,1.3-2.1-2.8-3.1-2.2c-2.2,1.3-4,4.8-7,6.1c-3.2,1.5-5.2-1.6-4.9-4.4c0.5-6.8,4.2-15.1,10.7-18.2
			c2.7-1.3,3.8,0.2,5-0.2c0.4-0.2,1.1-0.8,1.5-1.2c1.1-0.9,2.1-1.8,3.3-2.2C200.8,86,201.4,86.2,201.3,87.3z M193.4,94.2
			c0-0.5-0.2-1.3-0.8-1c-2.8,1.5-4.5,7-4.7,10.2c0,0.6,0.2,1.6,0.9,1.2C191.5,103,193.3,97.5,193.4,94.2z"/>
		<path class="st0" d="M208,105.6c-3.2,1-4.3-0.5-4.3-2.3c0-1.2,0.3-3,0.7-5c0.4-2,0.8-4.3,0.9-6.1c-2.4,0.6-3-0.9-3-2.4
			c0-2.8,2.8-4.8,4.5-6c0.4-0.3,0.8-0.5,1-0.8c1-0.8,2.6-2,4.3-2.5c1.7-0.5,2.5,0.3,3,1.2c0.8-1.3,2.1-2.6,4.3-3.2
			c3.2-0.9,5.9,1.7,5.9,4.9c0,3.4-2.1,6.7-5.5,7.6c-1.2,0.3-2.1,0.2-2.7-0.1c-0.2,2-0.3,3.1-0.5,5.1c0.1,1.4,0,3.3-1.4,5.2
			c-1.6,2.2-4.4,3.5-7,4.3C208.3,105.5,208.1,105.6,208,105.6z"/>
		<path class="st1" d="M215.1,96.4c0.5,4.2-3.4,6.4-6.8,7.5c-1.4,0.5-3.1,0.6-3-1.1c0.1-3.7,1.5-7.6,1.6-11.4c0.1-1.1-0.1-1.3-1.1-1
			c-1.2,0.4-1.8,0.3-1.8-1.1c0-2.1,3.2-3.8,4.7-5c1.1-0.9,2.3-1.7,3.6-2.1c2.4-0.7,1.3,3.3,2.6,3c1.1-0.3,1-4.1,4.7-5
			c2.5-0.6,4.3,1.2,4.3,3.6c0,2.4-1.2,5-3.8,5.6c-1.4,0.4-2,0-2.6-1c-0.1-0.2-0.5-0.8-0.8-0.7c-0.5,0.1-0.8,1.9-0.8,2.2
			C215.4,92.5,215.3,93.8,215.1,96.4z"/>
		<path class="st0" d="M230.3,100c-2.9,0.7-5.6-1-5.5-4.1c0-1.4,0.2-2.9,0.4-4.1c0.5-2.8,0.7-4.2,1.1-7c-2.6,0.4-2.9-1.5-2.9-2.3
			c0-2.5,1.5-4.5,3.9-5.3c0.1,0,0.1,0,0.2-0.1c0.1-0.3,0.2-0.8,0.4-1.3c0.3-1.1,0.9-3.1,2.7-4.3c1.8-1.2,4.3-1.8,5.6-1.9
			c1.9-0.3,3.1,0.8,3.1,2.7c0,0,0,0,0,0.1c0,0,0,0,0,0.1c0,0.2-0.1,0.5-0.1,0.9c-0.1,0.5-0.1,1.2-0.2,1.8c0.2,0,0.5-0.1,0.8-0.1
			c1.8-0.2,2.6,0.9,2.6,2.1c0,0.6-0.1,1.2-0.2,1.7c0,0.1,0,0.2,0,0.3c0,0.1,0,0.1,0,0.2c-0.1,0.7-0.4,2.9-2.8,3.2
			c-0.2,0-0.3,0-0.5,0.1c-0.2,0-0.6,0.1-0.8,0.1c-0.1,0.4-0.3,1.2-0.4,1.9c-0.2,1.6-0.3,2.4-0.5,4c0,0,0,0,0,0.1
			c-0.1,0.3-0.1,0.5-0.1,0.7c0.1,0,0.2-0.1,0.2-0.1c0.4-0.3,0.9-0.6,1.6-0.7c1.6-0.2,2.7,1,2.7,2.7C241.5,95.8,234.2,98.9,230.3,100
			z"/>
		<path class="st1" d="M235.6,88.4c-0.4,1.8,0.1,2.8,1.1,2.6c0.9-0.1,1.6-1,2.2-1c0.8-0.1,1.1,0.7,1.1,1.3c-0.4,3.3-6.4,6.3-9.7,7
			c-2.2,0.5-3.9-0.4-3.9-2.9c0-1.3,0.2-2.5,0.4-3.8c0.5-2.9,0.7-4.3,1.2-7.1c0.3-1.6,0.2-1.8-1.4-1.4c-0.9,0.2-1.4,0-1.4-1
			c0-1.7,0.9-2.8,2.5-3.3c1.2-0.4,1.4-0.8,1.9-2.7c0.4-1.2,0.8-2.5,1.8-3.2c1.4-0.9,3.4-1.4,4.9-1.7c1-0.1,1.5,0.3,1.5,1.2
			c0,0.8-0.4,3.1-0.4,3.7c0,1.2,1.3,0.6,2.5,0.5c0.5-0.1,1,0,1,0.6c0,0.5-0.1,1.2-0.2,1.7c-0.1,0.9-0.1,1.7-1.2,1.8
			c-2.7,0.3-2.7,0.2-3.3,3.7C235.9,86.1,235.8,86.9,235.6,88.4z"/>
		<path class="st0" d="M246.2,97.9c-2.4,0.2-4.8-1.2-4.8-3.8c0-0.8,0.1-1.6,0.2-2.4c0.4-2.8,0.6-4.1,1-6.9c0.1-0.3,0.1-0.6,0.2-0.9
			c0-0.1,0-0.2,0-0.2c-0.3,0-0.7-0.1-1-0.3c-0.6-0.3-1.3-1-1.3-2.4c0-2.7,2.6-4.1,4-4.8c0,0,0,0,0,0c0.3-0.1,0.6-0.3,0.9-0.4
			c-2.9-0.5-3.3-2.4-3.2-3.3c0.1-4.4,6-6.8,9.7-6.9c0.7,0,2.7,0.1,3.9,1.4c0.7,0.7,1,1.6,1,2.5c0,2.1-1.7,3.6-3.7,4.7
			c1.4,0.4,2.2,1.6,2.2,3.3c0,1.4-0.3,3.5-0.6,5.3c0,0.2-0.1,0.3-0.1,0.4c0,0,0,0,0,0.1c-0.1,0.3-0.5,3.4-0.8,5.3
			c1,0.2,2.3,0.8,2.2,2.6C256.2,95.6,249.7,97.5,246.2,97.9z"/>
		<path class="st1" d="M244.3,85c0.2-0.9,0.4-1.7,0.4-2.2c0-0.5-0.2-0.8-0.9-0.7c-0.6,0-1.5,0.2-1.5-1.2c0-1.7,1.8-2.6,3.1-3.2
			c1.8-0.9,4.8-1.9,6.8-1.9c1.2,0,1.8,0.6,1.8,1.8c0,1.7-0.6,5-0.7,5.6c-0.1,0.4-0.8,4.9-1,6.5c-0.1,0.7,0.4,0.7,1.1,0.7
			c0.7,0,1.4,0.1,1.3,1c-0.3,3.1-5.6,4.7-8.4,5c-1.4,0.1-3.2-0.7-3.2-2.3c0-0.7,0.1-1.5,0.2-2.2C243.7,89,243.9,87.7,244.3,85z
			 M244.1,72.3c0.3-3.2,5.1-5,8.1-5.1c1.4-0.1,3.4,0.7,3.2,2.2c-0.4,2.9-5.1,4.7-7.9,4.8C246.3,74.3,243.9,73.9,244.1,72.3z"/>
		<path class="st0" d="M259.9,97.9c-1.1-0.1-2-0.3-2.7-0.8c-1-0.7-1.5-1.8-1.5-3c0-1,0.3-2.4,0.7-4.3c0.4-2.1,1-4.7,1-6.5
			c-1.6-0.1-2.6-1.3-2.6-3c0-1.5,1-2.7,2.8-3.7c2.2-1.2,5.4-2,7.9-1.7c2.2,0.2,3,2.1,3.3,3.3c0,0,0.1,0,0.1-0.1
			c1.6-0.9,4.1-2.1,6.8-1.4c3.3,0.8,6,3.7,6.1,7.1c0,1.6-0.4,3.5-0.8,5.4c-0.3,1.3-0.5,2.7-0.6,3.7c1.2,0.8,1.9,1.9,1.9,3.1
			c-0.1,4.2-6.9,4.1-9.8,3.6c-2.6-0.5-4.4-2.5-4.4-5c0-1.5,0.3-3.1,0.7-4.7c0.1-0.7,0.3-1.4,0.4-2c0.1-0.9,0.2-1.3,0.3-2.1
			c-0.4,0.7-0.9,2.3-1.3,5.8c0,0.1,0,0.1,0,0.2c-0.2,4.9-3.4,6.4-7.8,6.2C260.2,97.9,260,97.9,259.9,97.9z"/>
		<path class="st1" d="M271.2,85c0-0.7-0.5-1.4-1.1-1.5c-2.7,0-3.5,5.2-3.6,7.8c-0.2,4-2.5,5.1-6.3,5c-1.4,0-2.9-0.5-2.9-2.2
			c0.2-3.6,1.7-7.4,1.7-11.2c0-0.8-0.3-1.3-1.1-1.3c-0.2,0-0.2,0-0.4,0c-0.8,0-1.1-0.5-1.1-1.3c0-1.1,1.1-1.8,2-2.3
			c1.6-0.9,5.2-1.8,7.1-1.5c2.4,0.3,1.3,3.6,2.5,3.8c1,0.2,4.2-2.8,7.6-2c2.3,0.5,4.5,2.6,4.5,5c-0.1,3.1-1.3,6.4-1.4,9.5
			c0,1.5,2,1.3,1.9,2.7c-0.3,2.8-5.8,2.9-8.1,2.5c-1.7-0.3-2.8-1.4-2.8-3.2c0-2,0.7-4.4,1-6.4C270.9,87,271,86.3,271.2,85z"/>
	</g>
	<g>
		<path class="st0" d="M163.2,157.1c-4,1.5-8.1,3.1-12.3,3.5c-4.5,0.4-5.5-1.9-5.5-3.9c0-1.1,0.3-2.2,0.9-3.2
			c0.3-0.5,0.9-1.4,3.2-4.1c0.2-0.3,0.8-1.1,1.1-3.2c0.4-3.1,0.4-6.3,0.4-9.5c0-3.2-0.2-4.1-0.3-4.4c0,0,0,0,0,0
			c-0.2,0.1-0.6,0.6-1.1,1.5c-1.4,2.6-2.5,5.5-3.5,8.3c-1.9,4.9-3.8,9.7-5.6,14.6c-1,2.6-1.9,4.4-2.6,5.5c-1.1,1.8-2.4,2.5-3.2,2.8
			c-1.2,0.4-2.2,0.2-3-0.5c-0.3-0.3-0.9-0.9-2.6-3.7c-1.2-2-2.3-3.9-3.1-5.5c-2.1-4.1-4.1-8.2-6.2-12.3c-0.5-1-0.9-1.4-1.1-1.6
			c0,0.2-0.1,0.4-0.1,0.9c-0.2,3.4-0.3,6.8-0.3,10.2c0,3.8,0.2,5.4,0.4,6.1c0.2,0.5,0.3,0.6,0.4,0.6c0.1,0,0.5,0.3,2.6,0.8
			c1.6,0.4,2.5,1.7,2.4,3.6c0,6.9-9.8,9.4-15.1,10.3c-4.1,0.7-13.1,1.3-13-5.1c0-1.3,0.4-2.4,1.1-3.1c0.4-0.4,1.1-1,3.5-2.4
			c0,0,0,0,0,0c0.7-0.4,1.1-0.8,1.3-1.3c0.2-0.4,0.5-1.5,0.8-4.4c0.4-4.1,0.6-8.2,0.8-12.3c0.2-4.9,0.3-9.8,0.4-14.7
			c0-3.1,0.1-6.8-1-9.6c-0.2-0.5-0.4-0.7-0.5-0.8c-0.1-0.1-0.5-0.3-1.7-0.8c-3.5-1.3-4.2-3.6-4.2-5.2c0-1.5,0.6-2.9,1.7-4.3
			c1-1.2,2.4-2.2,4.1-2.8c1.5-0.6,3.4-1.2,5.8-2c2.4-0.7,4.4-1.3,6.1-1.6c2.9-0.6,6.1-1.4,9.1-1.1c1,0.1,1.9,0.5,2.5,1
			c0.6,0.5,1.3,1.4,2.2,3c3.2,5,6.5,10,9.8,15c1.4,2.1,1.9,2.5,2,2.6c0,0,0.1,0.1,0.5,0c0.1,0,0.3-0.1,0.5-0.4
			c0.2-0.3,0.6-1,1.4-2.7c2.2-5.1,4.4-10.2,6.6-15.3c0.8-1.9,1.3-3.2,1.6-3.8c1.3-3.1,2.8-6.3,5.1-8.8c3-3.2,7.4-5.1,11.4-6.7
			c3.2-1.3,15.1-5.7,14.9,1.9c0,1.2-0.3,2.3-0.8,3.3c-0.5,0.9-1.3,2-2.5,3.4c-1.1,1.2-1.8,2.8-2.1,4.5c-0.9,5.2-1,10.7-1.1,15.9
			c0,6.7,0.2,13.6,1.1,20.4c0.2,1.6,0.5,2,0.6,2c0.1,0.1,0.5,0.4,2.6,1c1.6,0.4,2.5,1.7,2.4,3.4c0,3.5-2.8,6.4-5.5,8.4
			c-1.6,1.1-3.3,2.2-5.1,3C168.5,155,165.9,156.1,163.2,157.1z"/>
		<path class="st1" d="M144.6,142c-1.9,4.9-3.8,9.7-5.6,14.6c-1,2.5-1.8,4.2-2.3,5.1c-0.6,0.9-1.3,1.5-2,1.7
			c-0.7,0.2-1.3,0.1-1.8-0.3c-0.3-0.3-1.1-1.4-2.4-3.4c-1.2-2-2.3-3.8-3.1-5.4c-2.1-4.1-4.1-8.2-6.2-12.3c-0.8-1.7-1.7-2.5-2.7-2.3
			c-1,0.2-1.6,1.2-1.6,2.9c-0.2,3.4-0.3,6.9-0.3,10.3c0,3.3,0.1,5.5,0.5,6.5c0.2,0.6,0.5,1.1,0.9,1.3c0.4,0.2,1.3,0.6,2.9,1
			c1,0.3,1.6,1.1,1.6,2.4c-0.2,5.5-9.3,7.6-13.5,8.2c-3.3,0.5-11.2,1.5-11.4-3.6c0-0.8,0.2-1.5,0.6-2c0.4-0.4,1.4-1.1,3-2.1
			c1-0.6,1.7-1.3,2.1-2.2c0.4-0.9,0.7-2.5,0.9-4.9c0.4-4.1,0.6-8.3,0.8-12.5c0.2-4.9,0.4-9.9,0.4-14.7c0-3.3,0.1-7-1.2-10.2
			c-0.3-0.6-0.6-1-1-1.3c-0.4-0.3-1-0.6-2-1c-2.2-0.8-3.3-2.1-3.3-3.8c0-1.1,0.4-2.1,1.2-3.1c0.8-1,2-1.7,3.3-2.3
			c1.4-0.6,3.2-1.2,5.5-1.9c2.3-0.7,4.3-1.2,5.9-1.6c2.7-0.5,5.7-1.3,8.5-1c0.8,0.1,1.5,0.4,1.9,0.8c0.5,0.4,1.1,1.3,2,2.7
			c3.2,5,6.5,10,9.8,15c1.1,1.6,1.8,2.6,2.2,2.9c0.4,0.3,1,0.3,1.7,0.1c0.6-0.2,1.2-0.6,1.7-1.3c0.5-0.6,1.1-1.7,1.7-3.2
			c2.2-5.1,4.4-10.2,6.6-15.3c0.8-2,1.3-3.2,1.6-3.8c1.1-2.8,2.5-5.8,4.6-8c2.7-2.8,6.8-4.7,10.4-6.1c2.4-0.9,13.3-5.5,13.3,0.9
			c0,0.9-0.2,1.7-0.5,2.4c-0.3,0.7-1.1,1.6-2.1,2.8c-1.4,1.6-2.4,3.6-2.7,5.8c-0.9,5.3-1.1,10.9-1.1,16.2c0,6.8,0.2,13.7,1.1,20.6
			c0.2,1.4,0.5,2.3,0.9,2.7c0.4,0.4,1.4,0.8,3,1.2c1.1,0.3,1.7,1.1,1.7,2.4c0,2.2-1.5,4.3-4.4,6.4c-1.5,1.1-3.1,2-4.7,2.8
			c-2.5,1.2-5.1,2.2-7.7,3.2c-3.8,1.5-7.8,3-11.8,3.4c-2.8,0.3-4.3-0.7-4.3-2.7c0-0.8,0.2-1.4,0.6-2.1c0.4-0.6,1.3-1.9,2.9-3.7
			c0.8-1,1.4-2.4,1.7-4.4c0.5-3.2,0.5-6.5,0.4-9.8c0-2.5-0.1-4.1-0.4-4.8c-0.2-0.7-0.7-0.9-1.5-0.6c-0.9,0.3-1.7,1.2-2.5,2.7
			C146.8,136.2,145.7,139.1,144.6,142z"/>
	</g>
	<g>
		<path d="M74.1,135c0-1.6-0.2-3.1-0.6-4.7c-0.6-2-1.7-3.8-3.3-5.2c-2.6-2.6-5.7-4.6-9.3-5.4c-1.8-0.4-3.5-0.7-5.3-1
			c-2.5-0.4-4.2-0.3-5.5,0.5c-1,0.6-1.7,1.5-2.2,2.6c-0.2,0.5-0.4,1-0.5,1.6c0,0.1,0,0.1,0,0.2c-0.1,0.4-0.3,0.7-0.5,1
			c-0.1,0.2-0.2,0.4-0.3,0.6c-0.1,0.2-0.2,0.5-0.1,0.8c0.1,0.5,0.4,1.1,0.8,1.6c0.3,0.4,0.4,0.6,0.4,0.8c0,0.1-0.1,0.1-0.1,0.2
			c-0.7,1.1-1.5,2-2.4,2.7c-0.4,0.3-0.8,0.6-0.7,1.2c0.1,0.5,0.4,1,0.8,1.4c0.2,0.2,0.4,0.4,0.6,0.6c0.2,0.2,0.6,0.6,0.7,0.8
			c0,0.2,0,0.4-0.1,0.5c-0.1,0.1-0.2,0.2-0.2,0.3c-0.2,0.3-0.5,0.7,0,1.4c0.1,0.2,0.3,0.4,0.5,0.6c-0.1,0.2-0.2,0.4-0.2,0.7
			c0,0.2,0.1,0.5,0.3,0.7c0.1,0.1,0.3,0.3,0.4,0.4c0.3,0.3,0.4,0.5,0.5,0.7c0,0.2,0,0.5-0.1,0.6c0,0.1-0.1,0.3-0.1,0.4
			c-0.1,0.5,0,1,0.2,1.5c0.3,1.2,1.3,2.3,2.4,2.5c1.6,0.3,3.1,0.4,4.6,0.5c1.2,1.2,2,3.6,2.2,4.5c0.1,0.3,0.3,0.5,0.5,0.6
			c4.5,1.5,9,2.6,13.7,3.4c0.2,0,0.3,0,0.4-0.1c0.1-0.1,0.1-0.3,0.1-0.5c-0.1-0.4-0.3-0.8-0.6-1.1c-0.1-0.2-0.2-0.4-0.3-0.6
			c-0.2-0.5-0.5-1.1-0.6-1.7c-0.3-1.1-0.5-2.2-0.6-3.3c-0.2-1.7,0.1-3.3,0.7-4.7c0.4-0.8,0.9-1.5,1.5-2.1c0.3-0.4,0.7-0.8,1-1.2
			C73.6,138.1,74.1,136.6,74.1,135z"/>
		<path class="st2" d="M70.9,139.8c-0.6,0.7-1.2,1.4-1.6,2.3c-0.7,1.5-1,3.3-0.8,5.2c0.1,1.2,0.3,2.4,0.7,3.5
			c0.2,0.6,0.4,1.2,0.7,1.8c0.1,0.3,0.3,0.5,0.4,0.8c0,0,0,0,0,0.1c-4.2-0.8-8.3-1.8-12.3-3.1c-0.4-1.4-1-2.8-1.9-4.1
			c0.1,0,0.3,0,0.4,0c0.4,0,0.7,0,0.9,0c2.3,0.1,3.5-0.7,3.5-2.1c0-0.3-0.3-0.6-0.6-0.7c-0.1,0-0.3,0-0.4,0.1
			c-0.1,0.1-0.2,0.2-0.2,0.3c0,0.6-0.4,1.3-2.7,1.2c-0.2,0-0.5,0-0.9,0c-0.4,0-0.9,0-1.4,0c-1.5,0-3.1-0.2-4.7-0.5
			c-0.5-0.1-1-0.7-1.1-1.2c-0.1-0.4-0.2-0.7-0.1-1c0-0.1,0-0.2,0.1-0.3c0.1-0.3,0.1-0.7,0.1-1.1c-0.2-0.6-0.5-1.1-1-1.6
			c0,0-0.1-0.1-0.1-0.1c0.1-0.1,0.1-0.2,0.2-0.2c0.1-0.1,0.1-0.2,0.1-0.4c0-0.2-0.1-0.3-0.2-0.5c-0.1-0.2-0.4-0.5-0.7-0.8
			c0,0,0.1-0.1,0.1-0.1c0.1-0.1,0.2-0.2,0.3-0.4c0.2-0.3,0.2-0.7,0.1-1.1c-0.1-0.7-0.8-1.4-1.2-1.8c-0.2-0.2-0.3-0.3-0.5-0.5
			c-0.1-0.1-0.2-0.3-0.3-0.4c0-0.1,0.1-0.2,0.5-0.5c1-0.8,1.8-1.8,2.5-2.9c0.1-0.2,0.2-0.4,0.2-0.6c-0.1-0.6-0.3-1.2-0.8-1.7
			c-0.2-0.3-0.4-0.6-0.5-0.8c0-0.1,0-0.2,0.1-0.3c0.1-0.2,0.2-0.4,0.3-0.6c0.2-0.4,0.4-0.8,0.5-1.2c0-0.1,0-0.1,0-0.2
			c0.1-0.5,0.3-1,0.5-1.4c0.4-1,1.1-1.8,2-2.3c1.1-0.7,2.7-0.8,4.9-0.4c1.7,0.2,3.4,0.5,5.1,0.9c3.3,0.8,6.2,2.7,8.6,5
			c1.4,1.3,2.4,2.9,2.9,4.6c0.4,1.5,0.6,2.9,0.5,4.4c0,1.4-0.4,2.7-1.2,3.7C71.5,139,71.2,139.4,70.9,139.8
			C70.9,139.8,70.9,139.8,70.9,139.8z"/>
		<path d="M71.9,133.6C71.9,133.6,71.9,133.6,71.9,133.6c-0.1-1-0.2-2-0.5-3c-0.4-1.5-1.3-2.9-2.5-4c-1.8-1.9-4.7-3.8-7.2-4.5
			c-0.2-0.1-0.4-0.1-0.6-0.2c-0.2,0-0.4-0.1-0.6-0.1c0,0,0,0,0,0c0,0-0.1,0-0.1,0c-1.4-0.3-2.9-0.5-4.3-0.7
			c-0.6-0.1-1.2-0.1-1.8-0.2c0,0,0,0,0,0c-0.9,0-1.8,0.1-2.4,0.5c-0.7,0.4-1.2,1.1-1.6,1.8c0,0,0,0,0,0.1c0,0.1-0.1,0.1-0.1,0.2
			c-0.2,0.4-0.4,1.4-0.5,1.5c-0.1,0.6-0.4,2.5,0.8,4.4c0.8,1.2,2,2,3.6,2.4c0.3,0.1,0.4,0.1,0.7,0.2c3.5,0.8,5.2,1,6.8,2.9
			c0.3,0.4,0.6,0.7,0.9,1.1c-0.3,1-0.8,3.2,1,5c2,2,2,2.4,2,3.3c0,0.2,0.1,0.4,0.3,0.5c0.2,0.1,0.4,0.2,0.5,0.1
			c0.1,0,1.4-0.5,1.4-2.9c0-1.3,1-2.3,2-3.1c0,0,0,0,0,0c0.5-0.3,1-0.6,1.4-1.1c0.4-0.6,0.7-1.2,0.8-1.9c0-0.1,0-0.1,0-0.2
			c0.1-0.3,0.1-0.7,0.1-1.1C71.9,134.3,71.9,134,71.9,133.6C71.9,133.6,71.9,133.6,71.9,133.6z"/>
		<path class="st3" d="M66.5,141.8c0,0.5-0.1,0.9-0.2,1.3c-0.3-0.7-0.8-1.5-2.2-2.8c-1.1-1.1-1-2.4-0.8-3.3c1,1.1,2.3,1.8,3.6,2.1
			c0.2,0,0.4,0.1,0.6,0.1C66.9,139.9,66.5,140.8,66.5,141.8z"/>
		<path class="st3" d="M70,137.1c-0.4,0.5-0.9,0.8-1.6,1c-1,0.1-2.1-0.1-3.1-0.7c0-0.3,0-0.4,0-0.7c0-0.3,0.2-0.5,0.5-0.4
			c0.7,0.1,1,0.2,1.6,0.4c0.3,0.1,0.5-0.1,0.5-0.4c0-0.3-0.2-0.6-0.5-0.7c-0.7-0.1-1-0.2-1.6-0.4c-0.9-0.2-1.6,0.3-1.6,1.2
			c0,0.1,0,0.1,0,0.2c-0.7-0.7-1.4-1.5-2-2.3c-0.6-0.8-1.4-1.5-2.3-1.9c0-0.2,0-0.2,0-0.4c0-0.3-0.2-0.6-0.5-0.7
			c-0.3-0.1-0.5,0.1-0.5,0.4c0,0.1,0,0.2,0,0.3c-1.4-0.5-2.9-0.8-4.3-1.1c-0.3-0.1-0.4-0.1-0.7-0.2c-0.3-0.1-0.7-0.2-1-0.3
			c0-0.1,0-0.2,0-0.3c0-0.3-0.2-0.6-0.5-0.8c-0.3-0.1-0.5,0-0.5,0.3c0,0,0,0,0,0c-0.2-0.2-0.4-0.4-0.5-0.6c-0.3-0.5-0.5-1-0.6-1.5
			c0.2,0.1,0.3,0.1,0.6,0.2c0.9,0.4,1.6-0.1,1.6-1c0-0.3-0.2-0.6-0.5-0.8c-0.3-0.1-0.5,0-0.5,0.3c0,0.3-0.2,0.4-0.5,0.3
			c-0.2-0.1-0.4-0.2-0.6-0.3c0-0.2,0-0.4,0.1-0.6c0.1-0.3,0.3-1,0.4-1.3c0.7,0.3,1.1,0.4,1.8,0.7c0.3,0.1,0.5,0,0.5-0.3
			c0-0.3-0.2-0.6-0.5-0.8c-0.5-0.2-0.8-0.3-1.3-0.5c0.3-0.4,0.6-0.7,1-1c0.4-0.2,0.8-0.4,1.3-0.4c0,0.3,0,0.4,0,0.7
			c0,0.9,0.7,1.9,1.6,2.2c0.3,0.1,0.5-0.1,0.5-0.4c0-0.3-0.2-0.6-0.5-0.7c-0.3-0.1-0.5-0.4-0.5-0.7c0-0.5,0-0.7,0-1.1
			c0.4,0,0.9,0.1,1.3,0.1c0.5,0.1,0.9,0.1,1.4,0.2c0,0,0,0.1,0,0.1c0,0.3,0.2,0.6,0.5,0.7c0.3,0.1,0.5-0.1,0.5-0.4
			c0-0.1,0-0.2,0-0.3c0.4,0.1,0.7,0.1,1.1,0.2c0,0.2,0,0.3,0,0.4c0,0.3,0.2,0.6,0.5,0.7c0.3,0.1,0.5-0.1,0.5-0.4c0-0.2,0-0.3,0-0.5
			c0,0,0.1,0,0.1,0c0.3,0.1,0.7,0.2,1,0.3c0,0.9,0,1.3,0,2.2c0,0.3,0.2,0.6,0.5,0.7c0.4,0.1,0.7,0.2,1.1,0.3
			c0.3,0.1,0.5-0.1,0.5-0.4c0-0.3-0.2-0.6-0.5-0.7c-0.2-0.1-0.3-0.1-0.5-0.1c0-0.6,0-0.9,0-1.5c1,0.4,1.9,0.9,2.7,1.6c0,0,0,0,0,0
			c0,0.7,0,1,0,1.6c0,0.3,0.2,0.6,0.5,0.7c0.3,0.1,0.5-0.1,0.5-0.4c0-0.4,0-0.6,0-1c0.4,0.3,0.7,0.6,1.1,1c0,0.5,0,0.8,0,1.4
			c0,0.3-0.2,0.5-0.5,0.4c-0.3-0.1-0.5,0.1-0.5,0.4c0,0.3,0.2,0.6,0.5,0.7c0.9,0.2,1.6-0.4,1.6-1.3c0-0.1,0-0.2,0-0.4
			c0.6,0.7,1,1.5,1.2,2.3c0.2,0.7,0.3,1.4,0.4,2.1c-0.4-0.1-0.6-0.1-1-0.2c-0.3-0.1-0.5,0.1-0.5,0.4c0,0.3,0.2,0.6,0.5,0.6
			c0.4,0.1,0.6,0.1,1.1,0.2c0,0.2,0,0.4,0,0.5c0,0.2,0,0.4,0,0.5c-0.4-0.1-0.6-0.1-1-0.2c-0.3-0.1-0.5,0.1-0.5,0.4
			c0,0.3,0.2,0.6,0.5,0.6c0.3,0.1,0.5,0.1,0.8,0.1C70.4,136.5,70.2,136.8,70,137.1z"/>
		<g>
			<path class="st4" d="M53.8,131.4c0,1.2-1,1.8-2.2,1.3c-1.2-0.5-2.2-1.9-2.2-3.1s1-1.7,2.2-1.2C52.9,128.9,53.8,130.3,53.8,131.4z
				"/>
			<path class="st5" d="M52.8,129.9c0,0.4-0.4,0.6-0.8,0.4c-0.5-0.2-0.8-0.7-0.8-1.1s0.4-0.6,0.8-0.4
				C52.4,129,52.8,129.5,52.8,129.9z"/>
			<path class="st3" d="M52.2,129.1c-0.3-0.1-0.5,0-0.5,0.2c0,0.2,0.2,0.5,0.5,0.6c0.3,0.1,0.5,0,0.5-0.2
				C52.7,129.5,52.5,129.2,52.2,129.1z"/>
		</g>
		<path id="Shape_30_" d="M55.6,127.2c0.2,0.1,0.3,0.1,0.5,0.2c0.3,0.1,0.5-0.1,0.5-0.4c0-0.3-0.2-0.6-0.5-0.7
			c-0.2-0.1-0.3-0.1-0.5-0.2c-0.9-0.3-1.6,0.1-1.6,1c0,0.2,0,0.3,0,0.5c0,0.9,0.7,1.9,1.6,2.2c0.2,0.1,0.3,0.1,0.5,0.2
			c0.3,0.1,0.5-0.1,0.5-0.4c0-0.3-0.2-0.6-0.5-0.7c-0.2-0.1-0.3-0.1-0.5-0.2c-0.3-0.1-0.5-0.4-0.5-0.7c0-0.2,0-0.3,0-0.5
			C55,127.3,55.3,127.1,55.6,127.2z"/>
		<path id="Shape_29_" d="M59.4,126.9c-0.3-0.1-0.5,0.1-0.5,0.4c0,0.4,0,0.7,0,1.1c0,0.3-0.2,0.5-0.5,0.4c-0.2-0.1-0.3-0.1-0.5-0.2
			c-0.3-0.1-0.5,0.1-0.5,0.4c0,0.3,0.2,0.6,0.5,0.7c0.2,0.1,0.3,0.1,0.5,0.2c0.9,0.3,1.6-0.2,1.6-1.1c0-0.4,0-0.7,0-1.1
			C59.9,127.3,59.7,127,59.4,126.9z"/>
		<path id="Shape_28_" d="M61.6,127.5c0-0.2,0-0.3,0-0.5c0-0.9-0.7-1.8-1.6-2.1c-0.4-0.1-0.7-0.2-1.1-0.3c-0.9-0.3-1.6,0.2-1.6,1.1
			c0,0.2,0,0.3,0,0.5c0,0.3,0.2,0.6,0.5,0.7c0.3,0.1,0.5-0.1,0.5-0.4c0-0.2,0-0.3,0-0.5c0-0.3,0.2-0.5,0.5-0.4
			c0.4,0.1,0.7,0.2,1.1,0.3c0.3,0.1,0.5,0.4,0.5,0.7c0,0.2,0,0.3,0,0.5c0,0.3,0.2,0.6,0.5,0.7C61.3,128,61.6,127.8,61.6,127.5z"/>
		<path id="Shape_27_" d="M63.2,131.8c-0.2-0.1-0.3-0.1-0.5-0.1c-0.3-0.1-0.5-0.4-0.5-0.7c0-0.2,0-0.3,0-0.5c0-0.3-0.2-0.6-0.5-0.7
			c-0.3-0.1-0.5,0.1-0.5,0.4c0,0.2,0,0.3,0,0.5c0,0.9,0.7,1.8,1.6,2.1c0.2,0.1,0.3,0.1,0.5,0.1c0.3,0.1,0.5-0.1,0.5-0.4
			C63.7,132.1,63.5,131.8,63.2,131.8z"/>
		<path id="Shape_26_" d="M65.9,130.8c0-0.3-0.2-0.6-0.5-0.7c-0.2-0.1-0.3-0.1-0.5-0.1c-0.3-0.1-0.5-0.4-0.5-0.7
			c0-0.3,0.2-0.5,0.5-0.4c0.2,0.1,0.3,0.1,0.5,0.1c0.3,0.1,0.5-0.1,0.5-0.4c0-0.3-0.2-0.6-0.5-0.7c-0.2-0.1-0.3-0.1-0.5-0.1
			c-0.9-0.2-1.6,0.3-1.6,1.2c0,0.9,0.7,1.8,1.6,2c0.2,0.1,0.3,0.1,0.5,0.1C65.7,131.3,65.9,131.1,65.9,130.8z"/>
		<path id="Shape_25_" d="M67.6,131.2c-0.3-0.1-0.5,0.1-0.5,0.4c0,0.4,0,0.7,0,1.1c0,0.3-0.2,0.5-0.5,0.4c-0.2,0-0.3-0.1-0.5-0.1
			c-0.3-0.1-0.5,0.1-0.5,0.4c0,0.3,0.2,0.6,0.5,0.7c0.2,0.1,0.3,0.1,0.5,0.1c0.9,0.2,1.6-0.4,1.6-1.3c0-0.4,0-0.7,0-1.1
			C68.1,131.5,67.9,131.2,67.6,131.2z"/>
	</g>
</g>
</svg>
