<?xml version="1.0" encoding="utf-8"?>
<!-- Generator: Adobe Illustrator 25.0.1, SVG Export Plug-In . SVG Version: 6.00 Build 0)  -->
<svg version="1.1" id="Layer_1" xmlns="http://www.w3.org/2000/svg" xmlns:xlink="http://www.w3.org/1999/xlink" x="0px" y="0px"
	 viewBox="0 0 512 512" style="enable-background:new 0 0 512 512;" xml:space="preserve">
<style type="text/css">
	.st0{fill:#25C2CE;}
	.st1{fill:#F4E662;}
	.st2{fill:#ED3B72;}
	.st3{fill:#FFFFFF;}
	.st4{fill:#F1DBCB;}
	.st5{fill:#00B5E5;}
	.st6{fill:#CC3300;}
</style>
<g>
	<rect x="5.5" y="6.2" class="st0" width="276" height="368"/>
	<rect x="5.5" y="6.2" class="st1" width="276" height="98.4"/>
	<path class="st2" d="M229.7,328.7c-43.7-57.6-28.6-79.9,24.8-95.7c-69-5.9-55.3-45-21.4-103.7c-53.5,53.5-100.5,63.1-116.3,9.7
		c-8.9,55-5.6,74-55.2,48.1c32,45.9,12.8,45.1-40.7,60.9c55,8.9,40.5,40.9,14.7,90.5c60.5-46.6,78.5-48.1,94.3,5.4
		C138.8,288.9,180.1,302.9,229.7,328.7z"/>
	<path class="st1" d="M189.1,252.1c-21.4-13.9-32.5-26.6-19.3-47.2c-20.8,12.9-26.2,10.4-32.1-13.4c-11.7,23.9-21.2,33.4-45.1,45.1
		c23.9,5.9,10.8,26.7-2.3,47.4c20.7-13,41.5-26.2,47.4-2.3C149.4,257.9,165.3,252.1,189.1,252.1z"/>
	<path d="M281.5,0.6H5.5c-3.1,0-5.6,2.5-5.6,5.6v289.7c0,3.1,2.5,5.6,5.6,5.6l0,0c3.1,0,5.6-2.5,5.6-5.6V110.2h176.4
		c3.1,0,5.6-2.5,5.6-5.6l0,0c0-3.1-2.5-5.6-5.6-5.6H11.2V11.9h264.7V99h-62c-3.1,0-5.6,2.5-5.6,5.6l0,0c0,3.1,2.5,5.6,5.6,5.6h62
		v258.3H11.2v-46.4c0-3.1-2.5-5.6-5.6-5.6l0,0c-3.1,0-5.6,2.5-5.6,5.6v52c0,3.1,2.5,5.6,5.6,5.6h276c3.1,0,5.6-2.5,5.6-5.6V6.2
		C287.1,3.1,284.6,0.6,281.5,0.6z"/>
	<path d="M34.8,238.2c-4.6,1.3-9.9,2.8-15.4,4.4c-2.5,0.7-4.2,3.1-4,5.8c0.2,2.6,2.1,4.8,4.7,5.2c17.1,2.7,27.2,7.8,31,15.3
		c6.6,13.2-4.3,36.1-20.4,67c-1.2,2.3-0.6,5.2,1.4,6.9c2,1.7,5,1.8,7.1,0.1c29.5-22.7,51.8-37,64.4-32.9
		c8.1,2.6,14.6,13.6,21.1,35.4c0.7,2.4,2.9,4,5.4,4c0.1,0,0.2,0,0.4,0c2.6-0.2,4.8-2.1,5.2-4.7c2.6-16.2,8.1-26.2,16.7-30.5
		c16.8-8.5,45.9,4.3,74.9,19.4c2.3,1.2,5.2,0.7,6.9-1.4c1.7-2,1.8-4.9,0.2-7c-19.9-26.2-27.5-45.2-23.2-58.1
		c3.9-11.8,17.8-20.7,45.2-28.8c2.6-0.8,4.3-3.3,4-6c-0.3-2.7-2.4-4.8-5.1-5c-23-2-36.7-7.7-41.8-17.3c-8-15.3,4.1-42.2,24.7-77.9
		c1.4-2.4,0.8-5.6-1.5-7.3c-2.2-1.7-5.4-1.5-7.4,0.5c-32.1,32.1-61.8,47.7-81.5,42.7c-11.7-3-20.3-13.3-25.4-30.6
		c-0.7-2.5-3.1-4.2-5.8-4c-2.6,0.2-4.8,2.1-5.2,4.7c-0.9,5.7-1.7,11.1-2.4,15.8c-3,20.3-5.2,35-11.2,38.1c-6.5,3.3-22.1-4.1-33.3-10
		c-2.3-1.2-5.1-0.7-6.8,1.3c-1.7,1.9-1.9,4.8-0.4,6.9c7.2,10.4,16.6,25,14.1,31.8C68.9,228.6,54.5,232.6,34.8,238.2z M76.6,200.3
		c12,4.6,19.9,5,26.1,1.9c10.7-5.4,13.3-19.6,16.7-42.9c6.4,10.4,14.9,17,25.4,19.7c12.4,3.2,26.9,0.5,43.2-7.8
		c8-4.1,16.3-9.5,24.9-16.2c-12.5,25.7-17.4,45.5-9.6,60.4c4.9,9.3,14.4,15.8,28.8,19.7c-18,7.8-28,16.9-31.9,28.7
		c-4.4,13.3-0.4,29.5,12.4,50.3c-27.2-12.6-49.1-18-65.5-9.8c-7.9,4-13.8,10.8-17.9,20.6c-6.2-14.8-13.1-22.5-22.3-25.5
		c-2.6-0.8-5.3-1.3-8.2-1.3c-6.7,0-14.3,2.2-23.3,6.8c-6.8,3.4-14.5,8.2-24.1,15c11.4-23.9,16.8-41.9,9.8-56
		c-3.4-6.9-9.7-12.2-19-16c22.2-6.3,35.7-10.7,39.7-21.9C84.1,219.4,82.7,211.6,76.6,200.3z"/>
	<path d="M90.4,289.6c1,0,2.1-0.3,3-0.9c12-7.5,26.9-16.9,33.6-14.2c2.3,0.9,4.1,3.8,5.3,8.5c0.6,2.3,2.5,4,4.9,4.3
		c2.4,0.3,4.6-1,5.7-3.1c10.9-22.1,25.2-26.4,46.4-26.4c2.5,0,4.7-1.6,5.4-4c0.7-2.4-0.2-5-2.3-6.3c-22.9-14.9-27.2-24.5-17.6-39.4
		c1.4-2.2,1.1-5.1-0.7-7c-1.8-1.9-4.7-2.2-7-0.8c-3.2,2-13.1,8.1-16.5,6.7c-3.4-1.4-6.3-12.9-7.2-16.7c-0.6-2.3-2.5-4-4.9-4.2
		c-2.4-0.3-4.6,1-5.7,3.1c-11.1,22.7-19.9,31.4-42.5,42.5c-2.1,1-3.4,3.3-3.1,5.7c0.3,2.4,2,4.3,4.3,4.9c4.7,1.2,7.6,2.9,8.5,5.3
		c2.7,6.7-6.6,21.6-14.2,33.6l0,0.1c-1.4,2.2-1,5.1,0.8,7C87.5,289.1,88.9,289.6,90.4,289.6z M136.4,206c2.4,5.6,5.4,9.5,9.8,11.3
		c3.8,1.6,8,1.3,12.7-0.4c-2.1,12.4,4.5,22.2,14.5,30.7c-13.9,2.2-25.6,8.1-35,21.9c-1.9-2.5-4.3-4.3-7.1-5.4
		c-2.2-0.9-4.5-1.3-7-1.3c-5.6,0-11.6,2.1-18,5.3c4.6-9.2,7-17.7,4-25c-1.1-2.6-2.7-4.9-5-6.8C119.5,228.2,128.2,219.8,136.4,206z"
		/>
	<g>
		<path d="M45.5,26.1c1.7,0.6,3.6,0.8,5.5,0.6L52,27l0.6,0.3h1.2l1.2,0.6h1.5c0.6,0.7,1.3,1.2,2.2,1.5l0.6,1.5l1.8,1.2l0.3,0.6
			l0.6,0.6V35c-0.2,0.1-0.4,0.3-0.6,0.6l-1.8,1.2c-2.7-0.1-5.6-0.9-8.6-2.5l-3.4-0.3l-2.2-0.6l-3.4,2.8l-1.2,1.5L40,38.4L39.1,39
			c-0.1,5.8,2.9,8.4,8.9,7.7l3.1,0.9l3.1-0.6c11.2,3.6,15.4,11.6,12.6,24c-1.6,0.6-2.9,1.7-4,3.4c-2,0.6-3.6,1.9-4.9,4
			c-1.1,0-2,0.4-2.8,1.2c-1.4-0.3-3.2-0.3-5.2,0c-1.7-1.5-3.7-2.2-6.2-2.2c-0.9-1.1-2.3-2.5-4-4c-1.1,0.1-2.2-0.3-3.4-0.9
			c-0.5-1.3-1.3-2.7-2.5-4h-1.5c0.1-1.7-0.3-3.3-1.2-4.9c1.2,0,2.5-0.3,4-0.9c1,1.5,2.5,2.4,4.6,2.8c0.2,0.9,0.9,1.2,2.2,0.9
			c0.5,0.7,1.2,1.1,2.2,1.2c3.1,2.4,6.7,3.7,10.8,4l4.3-4.3c0.1-0.6,0.4-1.2,0.9-1.8l0.6-0.6c-0.1-1.3-0.6-2.5-1.5-3.7
			c0.1-1.6-0.7-3.2-2.2-4.6c-3-1.1-6.2-1.4-9.5-0.9c-1.2-0.5-2.7-0.8-4.3-0.9h-1.2c-0.8-0.1-1.6,0-2.5,0.3l-3.7-3.4l-0.6-0.3
			c-4.4-4.5-5-9-1.8-13.5c0.6-4.4,2.6-7.6,6.2-9.5l0.6-1.5c1.2,0.1,2.5,0,4-0.3h0.6l0.6,0.3L45.5,26.1z"/>
		<path d="M89.7,26.1c2.3,0.7,4.8,0.8,7.7,0.3l1.2,0.6l1.2-0.3l0.9,0.3l0.9,0.6l1.2,2.2c-0.4,1-1.2,2.1-2.5,3.1
			c-1.5-0.2-3,0.3-4.6,1.2L94,34.4c-1.4-0.3-3-0.4-4.9-0.3h-2.5l-0.9,0.3c-1.4,0.6-3.2,1-5.2,1.2c-0.3,1.3-0.1,2.7,0.6,4.3
			c0.3,1,0.4,2.3,0.3,3.7l0.3,0.6l0.3,0.6c-0.5,1.2-0.4,2.5,0.3,4c2.9,0.2,5.9-0.4,9.2-1.5c1.2,0.1,2.5-0.1,4-0.6h0.9
			c1.3,1.8,1.3,3.8,0,5.8c-0.6,0.3-1.4,0.5-2.5,0.6c-2.4,1.9-5.3,2.8-8.9,2.5L83,56.5c-0.7,1.4-0.5,2.8,0.6,4
			c-1,3.2-0.7,6.4,0.9,9.5c0.2,0.1,0.4-0.1,0.6-0.3c3.1,0.5,6.5,0.1,10.1-1.2c0.8,0.1,1.6,0,2.5-0.3h0.9c0.9,0.1,1.9,0.1,3.1,0
			l1.2,0.3c1.2,0.9,1.8,2.4,1.8,4.3c-1,0.7-2.2,1.8-3.4,3.4c-2.5-0.4-5,0.2-7.4,1.5c-0.9-0.2-1.8-0.1-2.8,0.3
			c-3.2-0.5-6.5,0.1-9.8,1.5c-1.3-0.6-2.9-1.5-4.6-2.8c0.3-2.2-0.3-4.4-1.5-6.5c0.4-1.8,0.3-3.9-0.3-6.2c0.3-0.9,0.2-1.8-0.3-2.8
			c0.6-1.8,0.6-3.8,0-6.2l0.3-0.6v-1.2l0.3-8.3c-0.4-1.9-0.3-4,0.3-6.2c0.1-2.2-0.6-4.4-1.8-6.5c0.6-1,1-2.2,1.2-3.7
			c1.3-0.6,3-0.9,4.9-0.9l0.6-0.3l0.3-0.6C83.5,27.4,86.5,27.1,89.7,26.1z"/>
		<path d="M123.9,24.6l6.8,1.8l3.7,1.2l0.6,0.3l0.9,0.3l2.8,3.4c0.5,1.3,1.4,2.6,2.8,4l0.3,2.2c0.1,0.2,0.3,0.4,0.6,0.6
			c-0.2,0.7-0.5,1.4-0.9,2.2c0,1.2,0.2,2.7,0.6,4.3l-0.6,2.2v0.9c-1.8,0.6-3.2,1.9-4.3,4c-1.3,0.3-2.3,1.1-3.1,2.5l-0.9,0.3
			c-0.3-0.1-0.7-0.1-1.2,0c0.5,0.9,1.3,1.5,2.5,1.8c0.5,1.1,1.3,2,2.5,2.8l0.9,2.2c4.4,2.5,7.3,6.5,8.9,12c0.4,0.6,1,1.2,1.8,1.8
			l-0.6,3.1c-1.5,0.7-3.2,0.9-5.2,0.6c-0.9-1.7-2.5-3.2-4.6-4.3c-0.5-4.3-2.9-7.6-7.1-10.1v-0.6c-3-2.4-6.7-4-11.1-4.9
			c-0.4,1.8-0.4,4,0,6.8c-1.2,3.3-1.1,6.4,0.3,9.2l-0.3,1.8c-0.2,0.5-0.3,1-0.3,1.5c-0.6,0.1-1.2,0.3-1.8,0.6
			c-2.2,1.1-4,0.4-5.5-2.2c0.6-2.4,0.6-5.1,0-8.3c0.3-1.4,0.2-3.1-0.3-4.9c0.7-1.6,0.7-3.5,0-5.5c0.5-1.6,0.5-3.4,0-5.2l0.3-1.5
			c-0.2-0.8-0.5-1.7-0.9-2.8c0.2-1.2,0.2-2.7,0-4.3c-0.1-1.4,0-3.2,0.3-5.2l-0.3-1.8c0.3-1.2,0.2-2.5-0.3-4l0.3-0.9l0.6-1.8
			l-0.6-1.8c0.5-0.5,0.8-1.1,0.9-1.8c1.5-0.6,3.4-1,5.5-1.2l2.2-0.6h2.5h0.9C123.5,24.9,123.7,24.8,123.9,24.6z M121.7,31.9
			l-3.4,1.5l-0.3,0.3c0,1.3,0.2,2.6,0.6,3.7c-0.1,0.3-0.1,0.6,0,0.9c-0.5,1.2-0.6,2.5-0.3,4c-0.2,1.1-0.1,2.5,0.3,4l-0.6,0.9v1.2
			c3.6,3.6,7.5,3.5,11.7-0.3h1.5c0.4-1.4,1.4-2.8,3.1-4c0.1-0.8-0.1-1.7-0.3-2.8c0.2-0.8,0.2-1.8,0-3.1l-1.2-0.9
			c-0.5-1-1.3-1.8-2.5-2.5l-0.9-1.8L121.7,31.9z"/>
		<path d="M157.7,27.3c2.3,0.1,4.7,0.9,7.1,2.5c0.1,1.3,0.5,2.7,1.2,4l-0.3,2.2v2.2c-0.8,2.1-1,4.3-0.6,6.8
			c-0.4,1.5-0.6,3.4-0.6,5.5l-0.6,1.2l0.6,1.2c-0.5,1.3-0.6,2.7-0.3,4.3l-1.2,2.8l0.3,1.5c0.2,1.1,0.3,2.4,0.3,4l-0.6,2.2
			c0.2,0.8,0.6,1.7,1.2,2.8V71c-0.2,1.1-0.1,2.5,0.3,4l-0.3,0.9l0.3,0.6c-0.9,1.4-2.1,2.3-3.7,2.5c-1.9,0.4-3.7-0.2-5.2-1.8
			c0-1.4-0.1-3.3-0.3-5.5l0.3-0.9l-0.3-0.9l-0.6-0.3c0.5-1.3,0.6-2.7,0.3-4.3c0.5-1.4,0.7-3,0.6-4.9l-0.6-0.3
			c0.2-0.6,0.3-1.4,0.3-2.5l-0.6-0.3c0.4-1.6,0.4-3.5,0-5.5c0.3-1.1,0.4-2.5,0.3-4l0.3-3.7l-0.3-1.5l0.3-1.8c0-1.1,0.2-2.5,0.6-4
			l-0.3-0.9c0.2-0.1,0.4-0.3,0.6-0.6v-1.2l-0.6-1.8c0.1-0.6,0.1-1.2,0-1.8L157.7,27.3z"/>
		<path d="M188.1,26.1c2.3,0.7,4.8,0.8,7.7,0.3l1.2,0.6l1.2-0.3l0.9,0.3l0.9,0.6l1.2,2.2c-0.4,1-1.2,2.1-2.5,3.1
			c-1.5-0.2-3,0.3-4.6,1.2l-1.8,0.3c-1.4-0.3-3-0.4-4.9-0.3h-2.5l-0.9,0.3c-1.4,0.6-3.2,1-5.2,1.2c-0.3,1.3-0.1,2.7,0.6,4.3
			c0.3,1,0.4,2.3,0.3,3.7l0.3,0.6l0.3,0.6c-0.5,1.2-0.4,2.5,0.3,4c2.9,0.2,5.9-0.4,9.2-1.5c1.2,0.1,2.5-0.1,4-0.6h0.9
			c1.3,1.8,1.3,3.8,0,5.8c-0.6,0.3-1.4,0.5-2.5,0.6c-2.4,1.9-5.3,2.8-8.9,2.5l-2.2,0.9c-0.7,1.4-0.5,2.8,0.6,4
			c-1,3.2-0.7,6.4,0.9,9.5c0.2,0.1,0.4-0.1,0.6-0.3c3.1,0.5,6.5,0.1,10.1-1.2c0.8,0.1,1.6,0,2.5-0.3h0.9c0.9,0.1,1.9,0.1,3.1,0
			l1.2,0.3c1.2,0.9,1.8,2.4,1.8,4.3c-1,0.7-2.2,1.8-3.4,3.4c-2.5-0.4-5,0.2-7.4,1.5c-0.9-0.2-1.8-0.1-2.8,0.3
			c-3.2-0.5-6.5,0.1-9.8,1.5c-1.3-0.6-2.9-1.5-4.6-2.8c0.3-2.2-0.3-4.4-1.5-6.5c0.4-1.8,0.3-3.9-0.3-6.2c0.3-0.9,0.2-1.8-0.3-2.8
			c0.6-1.8,0.6-3.8,0-6.2l0.3-0.6v-1.2l0.3-8.3c-0.4-1.9-0.3-4,0.3-6.2c0.1-2.2-0.6-4.4-1.8-6.5c0.6-1,1-2.2,1.2-3.7
			c1.3-0.6,3-0.9,4.9-0.9l0.6-0.3l0.3-0.6C181.9,27.4,184.9,27.1,188.1,26.1z"/>
		<path d="M222.3,24.6l6.8,1.8l3.7,1.2l0.6,0.3l0.9,0.3l2.8,3.4c0.5,1.3,1.4,2.6,2.8,4l0.3,2.2c0.1,0.2,0.3,0.4,0.6,0.6
			c-0.2,0.7-0.5,1.4-0.9,2.2c0,1.2,0.2,2.7,0.6,4.3l-0.6,2.2v0.9c-1.8,0.6-3.2,1.9-4.3,4c-1.3,0.3-2.3,1.1-3.1,2.5l-0.9,0.3
			c-0.3-0.1-0.7-0.1-1.2,0c0.5,0.9,1.3,1.5,2.5,1.8c0.5,1.1,1.3,2,2.5,2.8l0.9,2.2c4.4,2.5,7.3,6.5,8.9,12c0.4,0.6,1,1.2,1.8,1.8
			l-0.6,3.1c-1.5,0.7-3.2,0.9-5.2,0.6c-0.9-1.7-2.5-3.2-4.6-4.3c-0.5-4.3-2.9-7.6-7.1-10.1v-0.6c-3-2.4-6.7-4-11.1-4.9
			c-0.4,1.8-0.4,4,0,6.8c-1.2,3.3-1.1,6.4,0.3,9.2l-0.3,1.8c-0.2,0.5-0.3,1-0.3,1.5c-0.6,0.1-1.2,0.3-1.8,0.6
			c-2.2,1.1-4,0.4-5.5-2.2c0.6-2.4,0.6-5.1,0-8.3c0.3-1.4,0.2-3.1-0.3-4.9c0.7-1.6,0.7-3.5,0-5.5c0.5-1.6,0.5-3.4,0-5.2l0.3-1.5
			c-0.2-0.8-0.5-1.7-0.9-2.8c0.2-1.2,0.2-2.7,0-4.3c-0.1-1.4,0-3.2,0.3-5.2l-0.3-1.8c0.3-1.2,0.2-2.5-0.3-4l0.3-0.9l0.6-1.8
			l-0.6-1.8c0.5-0.5,0.8-1.1,0.9-1.8c1.5-0.6,3.4-1,5.5-1.2l2.2-0.6h2.5h0.9C221.9,24.9,222.1,24.8,222.3,24.6z M220.1,31.9
			l-3.4,1.5l-0.3,0.3c0,1.3,0.2,2.6,0.6,3.7c-0.1,0.3-0.1,0.6,0,0.9c-0.5,1.2-0.6,2.5-0.3,4c-0.2,1.1-0.1,2.5,0.3,4l-0.6,0.9v1.2
			c3.6,3.6,7.5,3.5,11.7-0.3h1.5c0.4-1.4,1.4-2.8,3.1-4c0.1-0.8-0.1-1.7-0.3-2.8c0.2-0.8,0.2-1.8,0-3.1l-1.2-0.9
			c-0.5-1-1.3-1.8-2.5-2.5l-0.9-1.8L220.1,31.9z"/>
	</g>
</g>
<g>
	<polygon class="st3" points="158.9,330.6 200.1,297.7 214.8,302.4 221.7,330.8 200.7,345.6 161.2,337.2 	"/>
	<g>
		<polygon class="st4" points="203.9,251.4 303.2,210.7 365.4,225.9 371.8,240.2 275.6,270.4 266.5,281.4 296.9,307 333.4,296.3 
			398.8,279 439.1,357.5 465.3,375.2 403.1,459.9 361.2,449.8 323.1,424.5 295.6,378.1 278.7,389.8 263.3,402.7 246.7,399 
			239.9,382.1 223.7,376.3 213.7,370.2 210,347.1 221.7,330.8 214.8,302.4 190.7,304.3 192.3,291.1 191.6,270.1 		"/>
		<g>
			<polygon class="st5" points="471.3,378.9 502.4,402.6 428.1,503.3 381.7,491.6 465,375.5 			"/>
			<polygon class="st6" points="275.4,270.2 437.4,214.6 451.6,255.8 305.9,308.9 266.3,281.3 			"/>
			<path d="M186.9,283.7c1.3,2.6,3.1,5,5.2,7.1l-7.5,2.6c-1.5,0.5-2.9,1.4-4,2.5l-32.1,32.8c-3.5,3.5-4,9.2-0.8,13.4
				c1.7,2.2,4.3,3.6,7.1,4l42.7,5.7c-1.3,10.8,3.1,21.9,12.5,28.8c6.4,4.6,14,6.5,21.2,5.7c1.7,8.1,6.7,15.5,14.6,20.1
				c13.7,8.1,31.4,3.9,40.8-8.9l2-2.7c10,18.8,24.3,35.2,41.5,47.7c17.8,12.9,38.3,21.7,59.5,25.3l-14.5,19.9
				c-1.3,1.8-2.1,4-2.1,6.2c0.1,5.2,3.8,9.3,8.6,10.1l45.2,7.5c3.8,0.6,7.7-0.9,10-4.1l72.4-99.6c3.3-4.6,2.3-11-2.3-14.3
				c0,0-45.3-32.9-57.3-41.6l-37.8-71.3l45.4-15.6c5.4-1.8,8.2-7.7,6.4-13l-13.4-38.8c-1.9-5.4-7.7-8.2-13.1-6.4
				c-7.2,2.5-52.9,18.2-60,20.6c-4.2-8.5-12.4-14.5-19.2-16l-41.6-9.3c-6-1.3-12.3-0.9-18,1.4L201,241.7
				c-6.3,2.5-13.3,9.5-16.1,18.5C182.4,268,183.1,276.4,186.9,283.7z M177.5,328.6l16.1-16.4l15.1-5.2c-0.2,7,1.4,13.9,4.6,20.1
				l-13,4.5L177.5,328.6z M220,349.4l2.8-3.8l6.1-2.1l13.6,9.9l-6,8.3c-3.7,5-11.1,5.8-15.6,1.1C217.3,359.2,217.1,353.4,220,349.4z
				 M253.2,373.5l5.9-8.1l16.6,12.1l-6,8.3c-3.7,5-11.1,5.8-15.6,1.1C250.4,383.3,250.2,377.5,253.2,373.5z M423.9,490.2l-22.6-3.8
				L470,392l16.6,12.1L423.9,490.2z M432.7,363.6c0.7,1.4,1.8,2.6,3,3.5l17.7,12.9L403,449.3c-7.2-1.9-32.8-3.1-60.7-23.4
				c-29.6-21.5-38.3-47.9-42.9-55.2c-0.8-1.5-1.9-2.7-3.1-3.6l-58-42.2c-8.5-6.2-10.8-17.7-5.8-26.6c1.1-1,2-2.3,2.6-3.6
				c6.9-7.8,18.8-9.2,27.4-2.9l50.8,36.9c17.3,12.6,38.6,17.7,59.7,14.4c5.6-0.9,9.4-6.1,8.5-11.7c-0.9-5.6-6.1-9.4-11.7-8.5
				c-15.8,2.5-31.6-1.3-44.5-10.7l-1.4-1l68.5-23.6L432.7,363.6z M395.2,242.7l6.7,19.4l-98.7,34l-20.3-14.7
				C297.3,276.4,382,247.2,395.2,242.7z M433.9,229.5l6.7,19.4l-19.4,6.7l-6.7-19.4L433.9,229.5z M209.1,260.8l96.6-38.1
				c1.9-0.8,4-0.9,6-0.5l41,9.1c1.7,0.6,3.1,1.6,4.3,2.9l-98.4,33.9c-13.5-2.9-27.9,1-37.9,11.1c-4.6,3.2-12.8,0.5-15.5-4.8
				C202.6,269.5,204.4,263.5,209.1,260.8z"/>
		</g>
	</g>
</g>
</svg>
