<?xml version="1.0" encoding="utf-8"?>
<!-- Generator: Adobe Illustrator 25.0.1, SVG Export Plug-In . SVG Version: 6.00 Build 0)  -->
<svg version="1.1" id="Layer_1" xmlns="http://www.w3.org/2000/svg" xmlns:xlink="http://www.w3.org/1999/xlink" x="0px" y="0px"
	 viewBox="0 0 10 9" style="enable-background:new 0 0 10 9;" xml:space="preserve">
<style type="text/css">
	.st0{fill:#00B5E5;}
</style>
<path class="st0" d="M0,1.2c0-0.5,0.4-0.8,0.8-0.8h8.3c0.4,0,0.8,0.4,0.8,0.8S9.5,2,9.1,2H0.8C0.4,2,0,1.6,0,1.2z M9.1,3.8H0.8
	C0.4,3.8,0,4.2,0,4.7s0.4,0.8,0.8,0.8h8.3c0.4,0,0.8-0.4,0.8-0.8S9.5,3.8,9.1,3.8z M9.1,7.3H0.8C0.4,7.3,0,7.7,0,8.1
	s0.4,0.8,0.8,0.8h8.3c0.4,0,0.8-0.4,0.8-0.8S9.5,7.3,9.1,7.3z"/>
</svg>
