<?xml version="1.0" encoding="utf-8"?>
<!-- Generator: Adobe Illustrator 25.0.1, SVG Export Plug-In . SVG Version: 6.00 Build 0)  -->
<svg version="1.1" id="Layer_1" xmlns="http://www.w3.org/2000/svg" xmlns:xlink="http://www.w3.org/1999/xlink" x="0px" y="0px"
	 viewBox="0 0 512 512" style="enable-background:new 0 0 512 512;" xml:space="preserve">
<style type="text/css">
	.st0{fill:#CCFFFF;}
	.st1{fill:#FFFF33;}
	.st2{fill:#88B337;}
	.st3{fill:#99FFFF;}
	.st4{fill:#FFFFFF;}
	.st5{fill:#F1DBCB;}
	.st6{fill:#00B5E5;}
	.st7{fill:#CC3300;}
</style>
<g>
	<path class="st0" d="M11.6,49.5v299.2c0,15.7,12.8,28.5,28.5,28.5h313.5l71.2-71.2V49.5H11.6z"/>
	<path class="st1" d="M282.3,135c0,19.7-15.9,35.6-35.6,35.6s-35.6-15.9-35.6-35.6s15.9-35.6,35.6-35.6S282.3,115.3,282.3,135z"/>
	<path class="st2" d="M424.8,277.5l-99.7-71.2l-64.1,57l-99.7-85.5L54.4,270.4l-42.7,21.4v57c0,15.7,12.8,28.5,28.5,28.5h313.5
		l71.2-71.2V277.5z"/>
	<path class="st3" d="M54.4,327.4H40.1c-15.7,0-28.5,12.8-28.5,28.5V42.4c0-15.7,12.8-28.5,28.5-28.5h14.2V327.4z"/>
	<path class="st3" d="M353.6,377.2V306h71.2L353.6,377.2z"/>
	<path d="M424.8,42.4h-21.4v14.2h14.2v207l-31.5-22.5l-8.3,11.6l39.8,28.4v17.7h-64.1c-3.9,0-7.1,3.2-7.1,7.1v64.1H40.1
		c-11.8,0-21.4-9.6-21.4-21.4c0-11.8,9.6-21.4,21.4-21.4h14.2c3.9,0,7.1-3.2,7.1-7.1v-46.6l99.7-86.5l95.1,81.5
		c2.7,2.3,6.7,2.3,9.4-0.1l48.1-42.7l-9.5-10.7l-43.5,38.6l-95-81.4c-2.7-2.3-6.6-2.3-9.3,0l-95.1,82.4V56.6h242.2V42.4H61.5V6.8
		c0-3.9-3.2-7.1-7.1-7.1H40.1c-19.7,0-35.6,16-35.6,35.6v313.5c0,19.7,16,35.6,35.6,35.6h313.5c1.9,0,3.7-0.8,5-2.1l71.2-71.2
		c0.6-0.6,1.1-1.3,1.4-2.1c0.1-0.2,0.2-0.4,0.2-0.7c0.2-0.6,0.3-1.2,0.4-1.9c0-0.1,0.1-0.3,0.1-0.4V49.5c0-1.9-0.8-3.7-2.1-5
		C428.5,43.1,426.7,42.4,424.8,42.4z M18.7,35.3c0-11.8,9.6-21.4,21.4-21.4h7.1v299.2h-7.1c-7.7,0-15.2,2.5-21.4,7.1V35.3z
		 M360.7,360v-46.9h46.9L360.7,360z"/>
	<path d="M204,135c0,23.6,19.1,42.7,42.7,42.7s42.7-19.1,42.7-42.7c0-23.6-19.1-42.7-42.7-42.7C223.1,92.3,204,111.4,204,135z
		 M275.2,135c0,15.7-12.8,28.5-28.5,28.5s-28.5-12.8-28.5-28.5s12.8-28.5,28.5-28.5S275.2,119.3,275.2,135z"/>
</g>
<g>
	<polygon class="st4" points="154.3,331.5 195.5,298.7 210.2,303.4 217.1,331.8 196.1,346.5 156.6,338.2 	"/>
	<g>
		<polygon class="st5" points="199.3,252.4 298.6,211.6 360.8,226.8 367.2,241.1 271,271.3 261.9,282.3 292.3,307.9 328.8,297.3 
			394.2,280 434.5,358.4 460.7,376.1 398.5,460.8 356.6,450.7 318.5,425.5 291,379.1 274.1,390.8 258.7,403.6 242.2,400 235.3,383 
			219.1,377.2 209.1,371.1 205.4,348.1 217.1,331.8 210.2,303.4 186.1,305.2 187.7,292 187,271 		"/>
		<g>
			<polygon class="st6" points="466.7,379.9 497.8,403.6 423.5,504.3 377.1,492.6 460.5,376.4 			"/>
			<polygon class="st7" points="270.8,271.2 432.8,215.5 447,256.8 301.3,309.9 261.7,282.2 			"/>
			<path d="M182.3,284.6c1.3,2.6,3.1,5,5.2,7.1l-7.5,2.6c-1.5,0.5-2.9,1.4-4,2.5l-32.1,32.8c-3.5,3.5-4,9.2-0.8,13.4
				c1.7,2.2,4.3,3.6,7.1,4l42.7,5.7c-1.3,10.8,3.1,21.9,12.5,28.8c6.4,4.6,14,6.5,21.2,5.7c1.7,8.1,6.7,15.5,14.6,20.1
				c13.7,8.1,31.4,3.9,40.8-8.9l2-2.7c10,18.8,24.3,35.2,41.5,47.7c17.8,12.9,38.3,21.7,59.5,25.3l-14.5,19.9
				c-1.3,1.8-2.1,4-2.1,6.2c0.1,5.2,3.8,9.3,8.6,10.1l45.2,7.5c3.8,0.6,7.7-0.9,10-4.1l72.4-99.6c3.3-4.6,2.3-11-2.3-14.3
				c0,0-45.3-32.9-57.3-41.6l-37.8-71.3l45.4-15.6c5.4-1.8,8.2-7.7,6.4-13L445.6,214c-1.9-5.4-7.7-8.2-13.1-6.4
				c-7.2,2.5-52.9,18.2-60,20.6c-4.2-8.5-12.4-14.5-19.2-16l-41.6-9.3c-6-1.3-12.3-0.9-18,1.4l-97.2,38.3
				c-6.3,2.5-13.3,9.5-16.1,18.5C177.8,269,178.5,277.3,182.3,284.6z M172.9,329.5l16.1-16.4l15.1-5.2c-0.2,7,1.4,13.9,4.6,20.1
				l-13,4.5L172.9,329.5z M215.4,350.3l2.8-3.8l6.1-2.1l13.6,9.9l-6,8.3c-3.7,5-11.1,5.8-15.6,1.1
				C212.7,360.1,212.5,354.4,215.4,350.3z M248.6,374.4l5.9-8.1l16.6,12.1l-6,8.3c-3.7,5-11.1,5.8-15.6,1.1
				C245.8,384.2,245.6,378.5,248.6,374.4z M419.4,491.1l-22.6-3.8l68.7-94.5L482,405L419.4,491.1z M428.1,364.5
				c0.7,1.4,1.8,2.6,3,3.5l17.7,12.9l-50.4,69.4c-7.2-1.9-32.8-3.1-60.7-23.4c-29.6-21.5-38.3-47.9-42.9-55.2
				c-0.8-1.5-1.9-2.7-3.1-3.6l-58-42.2c-8.5-6.2-10.8-17.7-5.8-26.6c1.1-1,2-2.3,2.6-3.6c6.9-7.8,18.8-9.2,27.4-2.9l50.8,36.9
				c17.3,12.6,38.6,17.7,59.7,14.4c5.6-0.9,9.4-6.1,8.5-11.7c-0.9-5.6-6.1-9.4-11.7-8.5c-15.8,2.5-31.6-1.3-44.5-10.7l-1.4-1
				l68.5-23.6L428.1,364.5z M390.6,243.6l6.7,19.4l-98.7,34l-20.3-14.7C292.7,277.3,377.4,248.2,390.6,243.6z M429.3,230.4l6.7,19.4
				l-19.4,6.7l-6.7-19.4L429.3,230.4z M204.6,261.8l96.6-38.1c1.9-0.8,4-0.9,6-0.5l41,9.1c1.7,0.6,3.1,1.6,4.3,2.9L254,269.1
				c-13.5-2.9-27.9,1-37.9,11.1c-4.6,3.2-12.8,0.5-15.5-4.8C198,270.4,199.9,264.4,204.6,261.8z"/>
		</g>
	</g>
</g>
</svg>
