<?xml version="1.0" encoding="iso-8859-1"?>
<!-- Generator: Adobe Illustrator 19.0.0, SVG Export Plug-In . SVG Version: 6.00 Build 0)  -->
<svg version="1.1" id="Capa_1" xmlns="http://www.w3.org/2000/svg" xmlns:xlink="http://www.w3.org/1999/xlink" x="0px" y="0px"
	 viewBox="0 0 512 512" style="enable-background:new 0 0 512 512;" xml:space="preserve">
<path style="fill:#FF5F96;" d="M512,512H0V0h512V512z"/>
<path style="fill:#FF468C;" d="M512,512H256V0h256V512z"/>
<path style="fill:#7F1D32;" d="M482,482H30V30h452V482z"/>
<path style="fill:#66192D;" d="M482,482H256V30h226V482z"/>
<g>
	<path style="fill:#FF5F96;" d="M164.262,352V181.6h33.119V352H164.262z"/>
	<path style="fill:#FF5F96;" d="M280.422,354.4c-36.922,0-59.761-30.775-59.761-65.28c0-39.12,26.339-65.04,56.16-65.04
		c25.262,0,38.317,17.04,42.479,24.24V176.8h32.16v138.24c0,3.36,4.718,9.442,7.44,9.6V352c-5.603,1.118-10.163,1.68-13.681,1.68
		c-23.221,0-21.119-23.52-21.119-23.52C319.459,338.163,305.625,354.4,280.422,354.4z M288.821,327.04
		c20.179,0,29.358-18.079,30.479-21.12v-30c-1.282-3.518-12.801-24.48-32.399-24.48c-21.901,0-32.88,21.727-32.88,38.4
		C254.021,308.167,267.5,327.04,288.821,327.04z"/>
</g>
<path style="fill:#FF468C;" d="M351.461,315.04V176.8h-32.16v71.52c-4.162-7.2-17.218-24.24-42.479-24.24
	c-7.258,0-14.305,1.547-20.821,4.434v48.562c4.058-13.247,14.363-25.636,30.901-25.636c19.599,0,31.117,20.962,32.399,24.48v30
	c-1.121,3.042-10.301,21.12-30.479,21.12c-16.536,0-28.349-11.354-32.821-24.999v47.224c7.216,3.284,15.395,5.134,24.422,5.134
	c25.203,0,39.037-16.237,43.68-24.24c0,0-2.102,23.52,21.119,23.52c3.518,0,8.078-0.563,13.681-1.68v-27.36
	C356.179,324.482,351.461,318.4,351.461,315.04z"/>
<g>
</g>
<g>
</g>
<g>
</g>
<g>
</g>
<g>
</g>
<g>
</g>
<g>
</g>
<g>
</g>
<g>
</g>
<g>
</g>
<g>
</g>
<g>
</g>
<g>
</g>
<g>
</g>
<g>
</g>
</svg>
