<?xml version="1.0" encoding="utf-8"?>
<!-- Generator: Adobe Illustrator 25.0.1, SVG Export Plug-In . SVG Version: 6.00 Build 0)  -->
<svg version="1.1" id="Layer_1" xmlns="http://www.w3.org/2000/svg" xmlns:xlink="http://www.w3.org/1999/xlink" x="0px" y="0px"
	 viewBox="0 0 128 128" style="enable-background:new 0 0 128 128;" xml:space="preserve">
<style type="text/css">
	.st0{fill:#B3DFEF;stroke:#000000;stroke-width:5.1128;stroke-miterlimit:10;}
	.st1{fill:#F1DBCB;}
	.st2{fill:#00B5E5;}
</style>
<circle class="st0" cx="63.5" cy="63.7" r="54.9"/>
<polygon class="st1" points="24.3,66.7 39.7,41.9 55.8,35.3 59.5,37.4 43.1,59.5 42.9,63.3 53.7,64.1 60,55.9 71.6,41.6 93.1,52.5 
	101.7,52.2 101.5,80.8 90.7,85.3 78.2,85.8 64.8,80 62.9,85.3 61.6,90.5 57.4,92.4 53.1,89.7 48.6,91.1 45.5,91.3 41,86.8 
	40.9,81.4 34.9,76.2 29.9,80.5 28.1,77.3 24.6,72.8 "/>
<g>
	<polygon class="st2" points="103.6,52 114.2,52.3 114,86.3 101.9,91.2 101.6,52.3 	"/>
	<polygon class="st2" points="43.1,59.4 69.8,21.3 79.5,28.1 56,63.1 42.8,63.3 	"/>
	<path d="M25.7,76.6c0.7,0.4,1.5,0.6,2.3,0.7l-1.2,1.8c-0.2,0.4-0.4,0.8-0.5,1.2l-1.8,12.4c-0.2,1.3,0.6,2.7,2,3.1
		c0.7,0.2,1.5,0.1,2.2-0.3l10.3-5.6c1.4,2.6,4.2,4.3,7.3,4.3c2.1,0,4.1-0.8,5.6-2.1c1.7,1.5,4,2.3,6.4,2.1c4.3-0.4,7.5-4.2,7.5-8.5
		l0-0.9c5.2,2.5,11,3.9,16.8,3.9c6,0,11.9-1.4,17.2-4v6.7c0,0.6,0.2,1.2,0.5,1.7c0.9,1.1,2.3,1.4,3.5,0.8l11.2-5.6
		c0.9-0.5,1.5-1.4,1.5-2.5V52.3c0-1.5-1.3-2.8-2.8-2.8c0,0-15.2,0-19.3,0l-19.7-9.6l7.5-10.7c0.9-1.3,0.6-3-0.7-3.9l-9.2-6.4
		c-1.3-0.9-3-0.6-3.9,0.7c-1.2,1.7-8.7,12.5-9.9,14.1c-2.3-1.2-5-1.2-6.8-0.4l-10.6,4.6c-1.5,0.7-2.8,1.8-3.7,3.2l-15.3,24
		c-1,1.6-1.4,4.2-0.6,6.6C22.2,73.8,23.7,75.6,25.7,76.6z M30.8,87.9l0.9-6.2l2.5-3.6c1.1,1.6,2.5,2.8,4.2,3.7L36.3,85L30.8,87.9z
		 M43.5,85.7v-1.3l1-1.4h4.6v2.8c0,1.7-1.5,3-3.3,2.8C44.5,88.3,43.5,87.1,43.5,85.7z M54.7,85.7V83h5.6v2.8c0,1.7-1.5,3-3.3,2.8
		C55.7,88.3,54.7,87.1,54.7,85.7z M111,84.1l-5.6,2.8V55.1h5.6V84.1z M92.6,54.8c0.4,0.2,0.8,0.3,1.2,0.3h6v23.3
		c-1.9,0.7-7.7,4.6-17.1,4.6c-10,0-16.1-4.4-18.3-5.3c-0.4-0.2-0.8-0.3-1.2-0.3H43.6c-2.9,0-5.2-2.2-5.5-4.9c0.1-0.4,0.1-0.8,0-1.2
		c0.3-2.8,2.7-5,5.6-5h17.1c5.8,0,11.3-2.3,15.4-6.4c1.1-1.1,1.1-2.9,0-3.9c-1.1-1.1-2.9-1.1-3.9,0c-3.1,3.1-7.2,4.8-11.5,4.8h-0.5
		l11.3-16.2L92.6,54.8z M65,34.2l4.6,3.2L53.3,60.7h-6.8C48.9,57.3,62.8,37.3,65,34.2z M71.4,25.1l4.6,3.2l-3.2,4.6l-4.6-3.2
		L71.4,25.1z M27,68l15.2-23.8c0.3-0.5,0.7-0.8,1.2-1.1l10.5-4.6c0.5-0.1,0.9-0.1,1.4,0L39,61.7c-3.4,1.5-6,4.7-6.6,8.5
		c-0.5,1.4-2.7,2.2-4.2,1.4C26.9,70.9,26.4,69.3,27,68z"/>
</g>
</svg>
