<?xml version="1.0" encoding="utf-8"?>
<!-- Generator: Adobe Illustrator 25.0.1, SVG Export Plug-In . SVG Version: 6.00 Build 0)  -->
<svg version="1.1" id="Layer_1" xmlns="http://www.w3.org/2000/svg" xmlns:xlink="http://www.w3.org/1999/xlink" x="0px" y="0px"
	 viewBox="0 0 512 512" style="enable-background:new 0 0 512 512;" xml:space="preserve">
<style type="text/css">
	.st0{fill:#CFDFE8;}
	.st1{fill:#AABECE;}
	.st2{fill:#E9F2EA;}
	.st3{fill:#7D8D9C;}
	.st4{fill:#7A263A;}
	.st5{fill:#F6BF9B;}
	.st6{fill:#5A6470;}
	.st7{fill:#87CEE9;}
</style>
<g>
	<path class="st0" d="M272,214.4H61.4L50.3,25.9h232.8L272,214.4z"/>
	<g>
		<path class="st1" d="M124,125c-2.2,7.7-2.2,15.8,0,23.5l3.9-11.8L124,125z"/>
		<path class="st1" d="M153,94.6c-5.8,1.9-11.1,4.9-15.6,8.9h12.6L153,94.6z"/>
		<path class="st1" d="M137.4,170.1c4.5,4,9.8,7,15.6,8.9l-3-8.9H137.4z"/>
		<path class="st1" d="M196,103.5c-4.5-4-9.8-7-15.6-8.9l3,8.9H196z"/>
		<path class="st1" d="M209.4,125l-3.9,11.8l3.9,11.8C211.6,140.9,211.6,132.7,209.4,125z"/>
		<path class="st1" d="M180.4,179c5.8-1.9,11.1-4.9,15.6-8.9h-12.6L180.4,179z"/>
		<path class="st2" d="M155.6,120.2l-5.5,16.6l5.5,16.6h22.2l5.5-16.6l-5.5-16.6H155.6z"/>
	</g>
	<path class="st2" d="M183.3,136.8l-5.5,16.6l5.5,16.6H196c6.5-5.7,11.2-13.2,13.5-21.5l-3.9-11.8H183.3z"/>
	<path class="st2" d="M177.8,153.4h-22.2l-5.5,16.6l3,8.9c8.9,2.9,18.4,2.9,27.3,0l3-8.9L177.8,153.4z"/>
	<path class="st2" d="M155.6,153.4l-5.5-16.6h-22.2l-3.9,11.8c2.3,8.3,7,15.8,13.5,21.5h12.6L155.6,153.4z"/>
	<path class="st2" d="M150.1,136.8l5.5-16.6l-5.5-16.6h-12.6c-6.5,5.7-11.2,13.2-13.5,21.5l3.9,11.8H150.1z"/>
	<path class="st2" d="M155.6,120.2h22.2l5.5-16.6l-3-8.9c-8.9-2.9-18.4-2.9-27.3,0l-3,8.9L155.6,120.2z"/>
	<path class="st2" d="M177.8,120.2l5.5,16.6h22.2l3.9-11.8c-2.3-8.3-7-15.8-13.5-21.5h-12.6L177.8,120.2z"/>
	<path class="st3" d="M5.9,3.8v243.9h22.2V25.9h277.2v221.7h22.2V3.8L5.9,3.8z"/>
	<path class="st1" d="M28.1,236.6l33.3-22.2L50.3,25.9H28.1V236.6z"/>
	<path class="st1" d="M305.3,236.6L272,214.4l11.1-188.5h22.2V236.6z"/>
	<path d="M116.8,136.8c0.1,14.3,6.2,27.9,17,37.4l0,0c5.1,4.5,11.1,7.9,17.5,10l0,0c10,3.2,20.7,3.2,30.7,0l0,0
		c6.5-2.1,12.4-5.5,17.5-10l0,0c20.7-18.2,22.7-49.7,4.5-70.3c-1.4-1.6-2.9-3.1-4.5-4.5l0,0c-5.1-4.5-11.1-7.9-17.5-10l0,0
		c-10-3.2-20.7-3.2-30.7,0l0,0c-6.5,2.1-12.4,5.5-17.5,10l0,0C123,108.9,116.9,122.5,116.8,136.8z M187.3,109.1h6.5
		c4.5,4.4,7.9,9.9,9.8,15.9l-0.2,0.6l-1.9,5.7h-14.2l-3.7-11.1L187.3,109.1z M187.3,142.3h14.2l1.9,5.7l0.2,0.6
		c-1.9,6-5.3,11.5-9.8,15.9h-6.5l-3.7-11.1L187.3,142.3z M176,174.4c-6.1,1.5-12.5,1.5-18.6,0l-1.5-4.4l3.7-11.1h14.2l3.7,11.1
		L176,174.4z M157.4,99.1c6.1-1.5,12.5-1.5,18.6,0l1.5,4.4l-3.7,11.1h-14.2l-3.7-11.1L157.4,99.1z M159.6,125.7h14.2l3.7,11.1
		l-3.7,11.1h-14.2l-3.7-11.1L159.6,125.7z M139.6,109.1h6.5l3.7,11.1l-3.7,11.1h-14.2l-1.9-5.7l-0.2-0.6
		C131.7,118.9,135.1,113.5,139.6,109.1z M130,148l1.9-5.7h14.2l3.7,11.1l-3.7,11.1h-6.5c-4.5-4.4-7.9-9.9-9.8-15.9L130,148z"/>
	<path d="M191.2,219.9h79.2l29.4,19.6v8.1c0,3.1,2.5,5.5,5.5,5.5h0h22.2c3.1,0,5.5-2.5,5.5-5.5c0,0,0,0,0,0V3.8
		c0-3.1-2.5-5.5-5.5-5.5c0,0,0,0,0,0H5.9c-3.1,0-5.5,2.5-5.5,5.5v0v243.9c0,3.1,2.5,5.5,5.5,5.5h0h22.2c3.1,0,5.5-2.5,5.5-5.5
		c0,0,0,0,0,0v-8.1l29.4-19.6h79.2 M33.7,226.2V31.5h11.4l10.6,180.1L33.7,226.2z M153.3,208.9H66.6L56.2,31.5h221.1l-10.4,177.4
		h-86.7 M299.7,226.2l-22-14.7l10.6-180.1h11.4V226.2z M321.9,242.1h-11.1V25.9c0-3.1-2.5-5.5-5.5-5.5c0,0,0,0,0,0H28.1
		c-3.1,0-5.5,2.5-5.5,5.5v0v216.2H11.5V9.3h310.4V242.1z"/>
	<path d="M205.5,236.6"/>
	<path d="M205.5,236.6"/>
	<path d="M205.5,236.6"/>
	<line x1="136.3" y1="228.5" x2="142" y2="235"/>
</g>
<g>
	<path class="st4" d="M350.6,238.2h79.9v106.6h-79.9V238.2z"/>
	<g>
		<path class="st5" d="M350.6,104.9h79.9v106.6h-79.9V104.9z"/>
		<path class="st5" d="M430.5,251.5h53.3v66.6h-26.7v-40h-26.7V251.5z"/>
		<path class="st5" d="M323.9,238.2v26.7h53.3c7.4,0,13.3,6,13.3,13.3c0,7.4-6,13.3-13.3,13.3h-79.9v-53.3H323.9z"/>
		<path class="st5" d="M483.8,344.8c0,7.4-6,13.3-13.3,13.3c-7.4,0-13.3-6-13.3-13.3c0-7.4,6-13.3,13.3-13.3
			C477.9,331.5,483.8,337.4,483.8,344.8z"/>
		<path class="st5" d="M323.9,211.5c0,7.4-6,13.3-13.3,13.3c-7.4,0-13.3-6-13.3-13.3c0-7.4,6-13.3,13.3-13.3
			C318,198.2,323.9,204.2,323.9,211.5z"/>
		<path class="st5" d="M350.6,398.1v-33.3L264,451.4l20,20l73.3-73.3H350.6z"/>
		<path class="st5" d="M403.9,424.7v-26.6h-26.7v53.3h79.9v-26.7H403.9z"/>
	</g>
	<path class="st6" d="M350.6,104.9h79.9v26.6h-79.9V104.9z"/>
	<path class="st6" d="M450.5,178.2h40v13.3h-40V178.2z"/>
	<path class="st4" d="M263.9,451.4l46.6-46.6l20,20l-46.6,46.6L263.9,451.4z"/>
	<path class="st7" d="M350.6,344.8h79.9v53.3h-79.9V344.8z"/>
	<path class="st6" d="M227.9,434.2l-10.6,10.6l2,2l-6.7,6.7c-2.6,2.6-2.7,6.8-0.1,9.4c2.6,2.6,6.8,2.7,9.4,0.1c0,0,0.1-0.1,0.1-0.1
		l6.7-6.7l3.9,3.9l-6.7,6.7c-2.6,2.6-2.6,6.8,0,9.4c2.6,2.6,6.8,2.6,9.4,0l6.7-6.7l3.9,3.9l-6.7,6.7c-2.6,2.6-2.6,6.8,0,9.4
		c2.6,2.6,6.8,2.6,9.4,0l6.7-6.7l8.6,8.6l20-20l-37.2-37.2C241.5,429,233.1,429,227.9,434.2z"/>
	<path class="st6" d="M497.1,464.7c3.7,0,6.7-3,6.7-6.7c0-3.7-3-6.7-6.7-6.7h-13.3v-6.7h13.3c3.7,0,6.7-3,6.7-6.7
		c0-3.7-3-6.7-6.7-6.7h-13.3v-6.7h-26.7V478c0,7.4,6,13.3,13.3,13.3h13.3v-6.7h13.3c3.7,0,6.7-3,6.7-6.7c0-3.7-3-6.7-6.7-6.7h-13.3
		v-6.7H497.1z"/>
	<path class="st4" d="M403.9,424.7h53.3v26.7h-53.3V424.7z"/>
	<path class="st6" d="M450.5,378.1h40v13.3h-40V378.1z"/>
	<path class="st6" d="M450.5,204.9h26.7v13.3h-26.7V204.9z"/>
	<path class="st6" d="M490.5,204.9h13.3v13.3h-13.3V204.9z"/>
	<path d="M350.6,218.2h79.9c3.7,0,6.7-3,6.7-6.7c0,0,0,0,0,0V104.9c0-3.7-3-6.7-6.7-6.7h-79.9c-3.7,0-6.7,3-6.7,6.7v106.6
		C343.9,215.2,346.9,218.2,350.6,218.2z M357.2,111.6h66.6v13.3h-66.6V111.6z M357.2,138.3h66.6v66.6h-66.6V138.3z"/>
	<path d="M450.5,344.8c0,11,9,20,20,20c11,0,20-8.9,20-20c0-11-8.9-20-20-20C459.5,324.8,450.5,333.8,450.5,344.8z M470.5,338.1
		c3.7,0,6.7,3,6.7,6.7c0,3.7-3,6.7-6.7,6.7c-3.7,0-6.7-3-6.7-6.7C463.8,341.1,466.8,338.1,470.5,338.1z"/>
	<path d="M330.6,211.5c0-11-8.9-20-20-20c-11,0-20,8.9-20,20s9,20,20,20C321.6,231.5,330.6,222.6,330.6,211.5z M310.6,218.2
		c-3.7,0-6.7-3-6.7-6.7c0-3.7,3-6.7,6.7-6.7c3.7,0,6.7,3,6.7,6.7C317.3,215.2,314.3,218.2,310.6,218.2z"/>
	<path d="M450.5,178.2h40v13.3h-40V178.2z"/>
	<path d="M212.6,449.4l2,2l-2,2c-2.6,2.6-2.7,6.8-0.1,9.4c2.6,2.6,6.8,2.7,9.4,0.1c0,0,0.1-0.1,0.1-0.1l2-2l3.9,3.9l-2,2
		c-2.6,2.6-2.6,6.8-0.1,9.4c2.6,2.6,6.8,2.6,9.4,0.1c0,0,0,0,0.1-0.1l2-2l3.9,3.9l-2,2c-2.6,2.6-2.6,6.8-0.1,9.4
		c2.6,2.6,6.8,2.6,9.4,0.1c0,0,0,0,0.1-0.1l2-2l8.6,8.6c2.6,2.6,6.8,2.6,9.4,0h0l91.3-91.3h10.6v46.6c0,3.7,3,6.7,6.7,6.7h0h73.3v20
		c0,11,9,20,20,20h13.3c3.7,0,6.7-3,6.7-6.7v-6.7h6.7c3.7,0,6.7-3,6.7-6.7c0-3.7-3-6.7-6.7-6.7h-6.7v-6.7h6.7c3.7,0,6.7-3,6.7-6.7
		c0-3.7-3-6.7-6.7-6.7h-6.7v-6.7h6.7c3.7,0,6.7-3,6.7-6.7c0-3.7-3-6.7-6.7-6.7h-6.7v-6.7c0-3.7-3-6.7-6.7-6.7h0h-73.3v-13.3h20
		c3.7,0,6.7-3,6.7-6.7v0V284.8h13.3v33.3c0,3.7,3,6.7,6.7,6.7h26.7c3.7,0,6.7-3,6.7-6.7c0,0,0,0,0,0v-66.6c0-3.7-3-6.7-6.7-6.7
		c0,0,0,0,0,0h-46.6v-6.7c0-3.7-3-6.7-6.7-6.7c0,0,0,0,0,0h-79.9c-3.7,0-6.7,3-6.7,6.7v0v20h-13.3v-20c0-3.7-3-6.7-6.7-6.7
		c0,0,0,0,0,0h-26.7c-3.7,0-6.7,3-6.7,6.7v53.3c0,3.7,3,6.7,6.7,6.7h0h46.6V362L264,442l-12.5-12.5c-7.8-7.8-20.5-7.8-28.3,0
		L212.6,440C210,442.6,210,446.8,212.6,449.4C212.6,449.4,212.6,449.4,212.6,449.4z M463.8,431.4h13.3v53.3h-6.7
		c-3.7,0-6.7-3-6.7-6.7V431.4z M437.2,258.2h40v53.3h-13.3v-33.3c0-3.7-3-6.7-6.7-6.7h0h-20V258.2z M397.2,444.7h-13.3v-40h13.3
		V444.7z M450.5,431.4v13.3h-40v-13.3H450.5z M423.9,391.4h-66.6v-40h66.6V391.4z M357.2,244.9h66.6v93.3h-66.6v-40h20
		c11,0,20-8.9,20-20c0-11-8.9-20-20-20h-20V244.9z M303.9,284.8v-40h13.3v20c0,3.7,3,6.7,6.7,6.7h0h53.3c3.7,0,6.7,3,6.7,6.7
		c0,3.7-3,6.7-6.7,6.7L303.9,284.8L303.9,284.8z M343.9,380.9v17.2c0,0.8,0.2,1.6,0.5,2.3c0.1,0.1,0.1,0.3,0.2,0.4
		c0.1,0.1,0.1,0.3,0.1,0.4l-14.1,14.1L320,404.8L343.9,380.9z M310.6,414.2l10.6,10.6L283.9,462l-10.6-10.6L310.6,414.2z
		 M232.6,438.9c2.6-2.6,6.8-2.6,9.4,0l32.5,32.5L264,481.9l-37.2-37.2L232.6,438.9z"/>
	<path d="M450.5,378.1h40v13.3h-40V378.1z"/>
	<path d="M450.5,204.9h26.7v13.3h-26.7V204.9z"/>
	<path d="M490.5,204.9h13.3v13.3h-13.3V204.9z"/>
</g>
<g>
	<g>
		<g>
			<path d="M161.5,277.5c-2.6-14.4-4.2-28.9-4.4-43.5c-0.2-14.5,1.1-29.1,4.5-43.2c-2.4,14.3-2.7,28.8-1.6,43.1
				c1.1,14.3,3.7,28.5,7.2,42.4c5,19.8,11.3,39.3,18.4,58.5c2.5,6.7,5.3,13.4,8.2,19.9c3,6.5,6,13,9.4,19.4
				c6.7,12.7,14.2,25.1,22.9,36.7c-9.4-11-17.8-22.8-25.4-35.2c-3.8-6.2-7.4-12.5-10.8-18.9c-3.4-6.4-6.6-13-9.6-19.6
				C171.6,318.1,165.2,298.1,161.5,277.5z"/>
		</g>
	</g>
</g>
</svg>
